<svg width="170" height="46" viewBox="0 0 170 46" fill="none" xmlns="http://www.w3.org/2000/svg">
<path d="M22.8116 23.743C23.3257 23.743 23.7424 23.3262 23.7424 22.8122C23.7424 22.2981 23.3257 21.8814 22.8116 21.8814C22.2976 21.8814 21.8809 22.2981 21.8809 22.8122C21.8809 23.3262 22.2976 23.743 22.8116 23.743Z" fill="#00B2B3"/>
<path fill-rule="evenodd" clip-rule="evenodd" d="M20.51 25.1147C20.7549 24.6738 22.1592 23.988 22.1592 23.988C22.1592 23.988 22.3225 25.5556 22.0776 25.9802C21.8327 26.4047 20.4283 27.1069 20.4283 27.1069C20.4283 27.1069 20.265 25.5556 20.51 25.1147Z" fill="#00B2B3"/>
<path fill-rule="evenodd" clip-rule="evenodd" d="M23.6621 25.9639C23.4008 25.5393 23.5151 23.9717 23.5151 23.9717C23.5151 23.9717 24.9521 24.6085 25.2134 25.0494C25.4747 25.474 25.3604 27.0416 25.3604 27.0416C25.3604 27.0416 23.9234 26.3884 23.6621 25.9639Z" fill="#00B2B3"/>
<path fill-rule="evenodd" clip-rule="evenodd" d="M25.9798 23.645C25.4899 23.6614 24.1836 22.7796 24.1836 22.7796C24.1836 22.7796 25.4573 21.8651 25.9635 21.8488C26.4697 21.8325 27.7597 22.7143 27.7597 22.7143C27.7597 22.7143 26.486 23.645 25.9798 23.645Z" fill="#00B2B3"/>
<path fill-rule="evenodd" clip-rule="evenodd" d="M25.1303 20.4934C24.8854 20.9343 23.4811 21.6201 23.4811 21.6201C23.4811 21.6201 23.3178 20.0525 23.5627 19.628C23.8076 19.2034 25.212 18.5012 25.212 18.5012C25.212 18.5012 25.3753 20.0525 25.1303 20.4934Z" fill="#00B2B3"/>
<path fill-rule="evenodd" clip-rule="evenodd" d="M21.9634 19.6443C22.2247 20.0689 22.1104 21.6365 22.1104 21.6365C22.1104 21.6365 20.6734 20.9997 20.4121 20.5588C20.1508 20.1342 20.2651 18.5666 20.2651 18.5666C20.2651 18.5666 21.7184 19.2198 21.9634 19.6443Z" fill="#00B2B3"/>
<path fill-rule="evenodd" clip-rule="evenodd" d="M19.6608 21.9631C20.1506 21.9468 21.457 22.8286 21.457 22.8286C21.457 22.8286 20.1833 23.743 19.6771 23.7594C19.1709 23.7757 17.8809 22.8939 17.8809 22.8939C17.8809 22.8939 19.1546 21.9631 19.6608 21.9631Z" fill="#00B2B3"/>
<path d="M3.10259 28.3316V34.4878L8.44232 37.574L11.5286 42.9137H17.6848L23.0245 46L28.3642 42.9137H34.5041L37.5903 37.574L42.9301 34.4878V28.3316L46.0163 22.9918L42.9301 17.6521V11.4959L37.5903 8.40966L34.5041 3.08626H28.3479L23.0082 0L17.6684 3.08626H11.5122L8.42599 8.42598L3.08626 11.5122V17.6684L0 23.0082L3.10259 28.3316ZM4.81718 28.5765H10.0426L12.394 24.4941L16.7377 27.0089V31.0586H11.5122L8.7689 35.7941L4.80085 33.508V28.5765H4.81718ZM18.4523 20.1505V15.0231L23.0082 17.6521L27.5641 15.0231V20.1505L31.875 22.6326L27.5641 25.1147V30.585L23.0082 27.956L18.4523 30.585V25.9801L13.3901 23.0571L18.4523 20.1505ZM10.0753 36.9862L12.5083 32.7732H16.8193L19.5627 37.5087L17.4398 41.1991H12.5247L10.0753 36.9862ZM19.0891 41.738L21.5385 37.5087L18.6319 32.4792L23.0082 29.9482L27.0089 32.2669L24.4941 36.6269L27.3191 41.5257L23.0082 44.0078L19.0891 41.738ZM33.5243 41.1991H29.1154L26.4863 36.6432L28.7235 32.7732H33.5243L35.9574 36.9862L33.5243 41.1991ZM37.2474 35.7941L34.5041 31.0586H29.2787V26.1271L33.2467 23.841L35.9901 28.5765H41.2155V33.508L37.2474 35.7941ZM44.0241 22.9918L41.787 26.8619H36.9698L34.5367 22.6489L36.9698 18.4359H41.3788L44.0241 22.9918ZM41.2155 16.7213H35.9901L33.2467 21.4569L29.2787 19.1707V14.5822H34.5041L37.0841 10.1079L41.1992 12.492V16.7213H41.2155ZM35.8431 8.83422L33.5243 12.8676H28.9031L26.47 8.6546L28.7071 4.78452H33.5243L35.8431 8.83422ZM27.0089 4.29464L24.4941 8.6546L27.1722 13.2758L23.0082 15.6763L18.8442 13.2758L21.5222 8.6546L19.0075 4.29464L23.0082 1.97586L27.0089 4.29464ZM12.5083 4.80085H17.3255L19.5627 8.67093L17.1296 12.8839H12.5083L10.1732 8.83422L12.5083 4.80085ZM8.9322 10.1079L11.5122 14.5822H16.7377V19.1707L12.394 21.6855L10.0426 17.6031H4.81718V12.492L8.9322 10.1079ZM4.13135 19.3014H9.04651L11.2346 23.0735L9.04651 26.8456H4.22932L1.99219 22.9755L4.13135 19.3014Z" fill="#00B2B3"/>
<path d="M77.6668 3.20904C77.6668 3.33446 77.5623 3.41808 77.4577 3.41808C75.2419 3.41808 72.6289 5.23674 71.6673 7.47347L63.0758 27.4159H66.1905C69.995 27.4159 73.0888 24.3221 73.0888 20.5176C73.0888 20.3922 73.1933 20.3086 73.2978 20.3086C73.4024 20.3086 73.5069 20.4131 73.5069 20.5176V27.625C73.5069 27.7504 73.4024 27.834 73.2978 27.834H62.4486H60.9644H57.3899H53.209C53.0836 27.834 53 27.7295 53 27.625C53 27.4996 53.1045 27.4159 53.209 27.4159C55.4458 27.4159 58.0379 25.5973 58.9995 23.3606L65.9605 7.30624C67.0057 4.92317 69.8069 3 72.1899 3H77.4368C77.5832 3 77.6668 3.08362 77.6668 3.20904ZM57.1599 10.3164V3.20904C57.1599 3.08362 57.2644 3 57.3689 3H64.4763C64.6018 3 64.6854 3.10452 64.6854 3.20904C64.6854 3.33446 64.5808 3.41808 64.4763 3.41808C60.6718 3.41808 57.578 6.51188 57.578 10.3164C57.578 10.4418 57.4735 10.5255 57.3689 10.5255C57.2644 10.5255 57.1599 10.4418 57.1599 10.3164Z" fill="#232856"/>
<path d="M88.9339 5.59207L81.2203 26.1408C81.074 26.517 81.0949 26.8515 81.2621 27.1023C81.4084 27.3114 81.6802 27.4368 82.0146 27.4368H82.4536C82.579 27.4368 82.6627 27.5413 82.6627 27.6458C82.6627 27.7504 82.5581 27.8549 82.4536 27.8549H82.0146H79.9242H78.3355H77.8965C77.7711 27.8549 77.6875 27.7504 77.6875 27.6458C77.6875 27.5413 77.792 27.4368 77.8965 27.4368H78.3355C79.1299 27.4368 80.0288 26.7888 80.3214 25.9944L88.035 5.46665C88.0768 5.36213 88.7039 5.29941 88.8085 5.34122C88.9339 5.34122 88.9757 5.46665 88.9339 5.59207Z" fill="#232856"/>
<path d="M101.645 27.625C101.645 27.7504 101.54 27.834 101.435 27.834H100.997H99.4078H94.3908H92.8021H92.3422C92.2168 27.834 92.1332 27.7295 92.1332 27.625C92.1332 27.5205 92.2377 27.4159 92.3422 27.4159H92.7812C93.1157 27.4159 93.3874 27.2905 93.5547 27.0606C93.7428 26.8097 93.7637 26.4753 93.6383 26.099L91.6942 20.1622H83.1863C83.0608 20.1622 82.9772 19.5769 82.9772 19.4515C82.9772 19.3261 83.0817 19.2425 83.1863 19.2425H91.3806L87.5552 7.45257C86.8236 5.23674 84.4405 3.41808 82.2247 3.41808C82.0992 3.41808 82.0156 3.31356 82.0156 3.20904C82.0156 3.08362 82.1201 3 82.2247 3H87.2416C89.6038 3 92.175 4.92317 92.9693 7.28533L99.0733 25.9736C99.3242 26.7679 100.181 27.4159 100.976 27.4159H101.415C101.54 27.4159 101.645 27.5205 101.645 27.625Z" fill="#232856"/>
<path d="M127.272 4.98588L120.227 23.8413V23.8622C120.227 23.8622 120.227 23.8623 120.227 23.8832L118.785 27.7295C118.743 27.8131 118.66 27.8758 118.576 27.8758C118.576 27.8758 119.956 27.8758 120.457 27.8758H117.991C115.127 27.8758 115.022 25.9527 114.228 23.5905L108.981 7.47347C108.249 5.25764 105.866 3.45989 103.65 3.45989C103.525 3.45989 103.441 3.35537 103.441 3.25085C103.441 3.14633 103.546 3.04181 103.65 3.04181H108.667C111.05 3.04181 113.622 4.96498 114.416 7.34805L114.437 7.36895L119.579 23.1724L126.415 4.90227C126.457 4.79775 127.084 4.73504 127.188 4.77684C127.251 4.75594 127.314 4.88136 127.272 4.98588Z" fill="#232856"/>
<path d="M109.963 27.625C109.963 27.7504 109.859 27.834 109.754 27.834H109.315H107.727H105.636H105.197C105.072 27.834 104.988 27.7295 104.988 27.625C104.988 27.5204 105.093 27.4159 105.197 27.4159H105.636C106.389 27.4159 107.016 26.8097 107.016 26.0363V4.10791C107.016 3.98248 107.601 3.89886 107.727 3.89886C107.852 3.89886 107.936 4.00339 107.936 4.10791V26.0363C107.936 26.7888 108.542 27.4159 109.315 27.4159H109.754C109.859 27.4159 109.963 27.5204 109.963 27.625Z" fill="#232856"/>
<path d="M133.48 27.625C133.48 27.7504 133.376 27.834 133.271 27.834H132.832H131.243H126.603H125.014H124.533C124.408 27.834 124.324 27.7295 124.324 27.625C124.324 27.5205 124.429 27.4159 124.533 27.4159H124.972C125.725 27.4159 126.352 26.8097 126.352 26.0363V3.20904C126.352 3.08362 126.456 3 126.561 3H132.79H133.229C133.355 3 133.438 3.10452 133.438 3.20904C133.438 3.31356 133.334 3.41808 133.229 3.41808H132.79C132.038 3.41808 131.411 4.0243 131.411 4.79775V26.0363C131.411 26.7888 132.017 27.4159 132.79 27.4159H133.229C133.376 27.4159 133.48 27.5205 133.48 27.625Z" fill="#232856"/>
<path d="M145.438 27.625C145.438 27.7504 145.334 27.834 145.229 27.834H144.79H136.972H136.533C136.408 27.834 136.324 27.7295 136.324 27.625C136.324 27.5205 136.429 27.4159 136.533 27.4159H136.972C137.725 27.4159 138.352 26.8097 138.352 26.0363V4.79775C138.352 4.0452 137.746 3.41808 136.972 3.41808H136.533C136.408 3.41808 136.324 3.31356 136.324 3.20904C136.324 3.10452 136.429 3 136.533 3H136.972H138.561H143.202H144.79H145.229C145.355 3 145.438 3.10452 145.438 3.20904C145.438 3.31356 145.334 3.41808 145.229 3.41808H144.79C144.038 3.41808 143.411 4.0243 143.411 4.79775V26.0363C143.411 26.7888 144.017 27.4159 144.79 27.4159H145.229C145.334 27.4159 145.438 27.5205 145.438 27.625Z" fill="#232856"/>
<path d="M170 4.0034V27.625C170 27.7504 169.415 27.834 169.289 27.834H168.181C165.798 27.834 163.018 25.8899 161.994 23.5278L155.033 7.47347C154.071 5.23674 151.458 3.41808 149.242 3.41808C149.117 3.41808 149.033 3.31356 149.033 3.20904C149.033 3.08362 149.138 3 149.242 3H154.489C156.872 3 159.673 4.92317 160.719 7.30624L167.68 23.3606C167.993 24.0713 168.474 24.7611 169.08 25.3673V4.0034C169.08 3.87797 169.185 3.79436 169.289 3.79436C169.394 3.79436 170 3.87797 170 4.0034Z" fill="#232856"/>
<path d="M156.141 27.625C156.141 27.7504 156.037 27.834 155.932 27.834H155.472H153.884H151.814H151.375C151.25 27.834 151.166 27.7295 151.166 27.625C151.166 27.4995 151.271 27.4159 151.375 27.4159H151.814C152.525 27.4159 153.11 26.8724 153.173 26.1826V4.79772C153.173 4.6723 153.758 4.58868 153.884 4.58868C154.009 4.58868 154.093 4.6932 154.093 4.79772V25.9944C154.093 26.0153 154.093 26.0362 154.093 26.0362C154.093 26.7888 154.699 27.4159 155.472 27.4159H155.911C156.037 27.4159 156.141 27.5204 156.141 27.625Z" fill="#232856"/>
<path d="M76.9765 37.9516V38.4533H75.3878V44.3482H74.8443V38.4533H74.3008V37.9516H74.8443V36.4883C74.8443 35.5058 75.5132 35.025 76.8511 35.025H77.2483V35.5267H76.8511C75.8686 35.5267 75.3878 35.8403 75.3878 36.5092V37.9725H76.9765V37.9516Z" fill="#232856"/>
<path d="M85.1073 43.0313C85.1073 44.0138 84.4384 44.4946 83.1005 44.4946C81.7627 44.4946 81.0938 43.9929 81.0938 43.0313V39.2895C81.0938 38.307 81.7627 37.8262 83.1005 37.8262C84.4384 37.8262 85.1073 38.3279 85.1073 39.2895V43.0313ZM84.5638 39.2895C84.5638 38.6414 84.0621 38.307 83.1005 38.307C82.139 38.307 81.6373 38.6205 81.6373 39.2895V43.0313C81.6373 43.6793 82.139 44.0138 83.1005 44.0138C84.0621 44.0138 84.5638 43.7002 84.5638 43.0313V39.2895Z" fill="#232856"/>
<path d="M92.9056 37.9515H93.4491V44.3482H92.9683L92.9056 44.1391C92.4666 44.3691 91.8813 44.4736 91.1706 44.4736C90.1672 44.4736 89.4355 44.0137 89.4355 43.0103V37.9515H89.9791V43.0103C89.9791 43.6583 90.4807 43.9928 91.4423 43.9928C91.9858 43.9928 92.5293 43.8883 92.7384 43.8256L92.9056 43.7629V37.9515Z" fill="#232856"/>
<path d="M98.507 44.3482H97.9844V37.9516H98.4443L98.507 38.1606C98.946 37.9307 99.5313 37.8262 100.242 37.8262C101.245 37.8262 101.977 38.2861 101.977 39.2895V44.3482H101.434V39.2895C101.434 38.6414 100.932 38.307 99.9703 38.307C99.4268 38.307 98.8832 38.4115 98.6742 38.4742L98.507 38.5369V44.3482Z" fill="#232856"/>
<path d="M109.775 35.025H110.319V44.3482H109.859L109.796 44.1392C109.357 44.3691 108.772 44.4737 108.061 44.4737C107.058 44.4737 106.326 44.0138 106.326 43.0104V39.2685C106.326 38.2652 107.037 37.8053 108.061 37.8053C108.709 37.8053 109.336 37.9307 109.608 38.0352L109.796 38.1188V35.025H109.775ZM109.775 43.7629V38.5578C109.42 38.3906 108.939 38.3279 108.312 38.3279C107.33 38.3279 106.849 38.6414 106.849 39.3104V43.0522C106.849 43.7002 107.35 44.0347 108.312 44.0347C108.856 44.0347 109.399 43.9302 109.608 43.8674L109.775 43.7629Z" fill="#232856"/>
<path d="M118.22 37.9516H118.68V44.3482H118.22L118.158 44.1392C117.719 44.3691 117.133 44.4736 116.423 44.4736C115.419 44.4736 114.688 44.0137 114.688 43.0104V39.2685C114.688 38.2651 115.398 37.8052 116.423 37.8052C117.071 37.8052 117.698 37.9307 117.969 38.0352L118.158 38.1188L118.22 37.9516ZM118.158 43.7629V38.5578C117.802 38.3906 117.321 38.3278 116.694 38.3278C115.712 38.3278 115.231 38.6414 115.231 39.3103V43.0522C115.231 43.7002 115.733 44.0346 116.694 44.0346C117.238 44.0346 117.781 43.9301 117.99 43.8674L118.158 43.7629Z" fill="#232856"/>
<path d="M125.557 38.4533H123.968V42.8849C123.968 43.5329 124.47 43.8674 125.431 43.8674H125.828V44.3691H125.431C124.093 44.3691 123.424 43.8674 123.424 42.9058V38.4742H122.881V37.9725H123.424V36.7809L123.759 36.6555H123.968V37.9934H125.557V38.4533Z" fill="#232856"/>
<path d="M129.947 35.025H130.47V37.1572H129.947V35.025ZM129.947 44.3482V37.9516H130.47V44.3482H129.947Z" fill="#232856"/>
<path d="M138.894 43.0313C138.894 44.0138 138.226 44.4946 136.888 44.4946C135.55 44.4946 134.881 43.9929 134.881 43.0313V39.2895C134.881 38.307 135.55 37.8262 136.888 37.8262C138.226 37.8262 138.894 38.3279 138.894 39.2895V43.0313ZM138.351 39.2895C138.351 38.6414 137.849 38.307 136.888 38.307C135.905 38.307 135.424 38.6205 135.424 39.2895V43.0313C135.424 43.6793 135.926 44.0138 136.888 44.0138C137.87 44.0138 138.351 43.7002 138.351 43.0313V39.2895Z" fill="#232856"/>
<path d="M143.827 44.3482H143.305V37.9516H143.765L143.827 38.1606C144.266 37.9307 144.852 37.8262 145.562 37.8262C146.566 37.8262 147.297 38.2861 147.297 39.2895V44.3482H146.754V39.2895C146.754 38.6414 146.252 38.307 145.291 38.307C144.747 38.307 144.204 38.4115 143.995 38.4742L143.827 38.5369V44.3482Z" fill="#232856"/>
</svg>
