<svg width="182" height="184" viewBox="0 0 182 184" fill="none" xmlns="http://www.w3.org/2000/svg">
<path d="M179.638 118.474C179.638 118.659 179.483 118.783 179.328 118.783H178.644C177.526 118.783 176.594 119.679 176.594 120.823C176.594 121.008 175.724 121.132 175.537 121.132C175.351 121.132 175.227 120.977 175.227 120.823C175.227 119.71 174.326 118.783 173.176 118.783H172.524C172.337 118.783 172.213 118.628 172.213 118.474C172.213 118.319 172.368 118.165 172.524 118.165H173.176H175.537H178.644H179.297C179.483 118.165 179.638 118.288 179.638 118.474Z" fill="white"/>
<path d="M39.3954 118.474C39.3954 118.659 39.24 118.783 39.0847 118.783C35.7914 118.783 31.9078 121.472 30.4787 124.779L17.7095 154.266H22.3387C27.9932 154.266 32.5913 149.692 32.5913 144.066C32.5913 143.881 32.7467 143.757 32.902 143.757C33.0574 143.757 33.2127 143.912 33.2127 144.066V154.575C33.2127 154.761 33.0574 154.884 32.902 154.884H16.7774H14.5715H9.25879H3.04506C2.85865 154.884 2.73438 154.73 2.73438 154.575C2.73438 154.39 2.88972 154.266 3.04506 154.266C6.3694 154.266 10.2219 151.577 11.6511 148.27L21.9969 124.532C23.5504 121.008 27.7135 118.165 31.2554 118.165H39.0536C39.2711 118.165 39.3954 118.288 39.3954 118.474ZM8.91703 128.983V118.474C8.91703 118.288 9.07237 118.165 9.22772 118.165H19.791C19.9775 118.165 20.1017 118.319 20.1017 118.474C20.1017 118.659 19.9464 118.783 19.791 118.783C14.1366 118.783 9.5384 123.357 9.5384 128.983C9.5384 129.168 9.38306 129.292 9.22772 129.292C9.07237 129.292 8.91703 129.168 8.91703 128.983Z" fill="white"/>
<path d="M56.1407 121.997L44.6764 152.381C44.4589 152.937 44.49 153.431 44.7385 153.802C44.956 154.111 45.3599 154.297 45.857 154.297H46.5094C46.6958 154.297 46.8201 154.451 46.8201 154.606C46.8201 154.761 46.6648 154.915 46.5094 154.915H45.857H42.7501H40.3889H39.7365C39.5501 154.915 39.4258 154.761 39.4258 154.606C39.4258 154.451 39.5811 154.297 39.7365 154.297H40.3889C41.5695 154.297 42.9055 153.339 43.3404 152.164L54.8047 121.812C54.8669 121.657 55.7989 121.564 55.9543 121.626C56.1407 121.626 56.2028 121.812 56.1407 121.997Z" fill="white"/>
<path d="M75.0309 154.575C75.0309 154.761 74.8755 154.884 74.7202 154.884H74.0677H71.7065H64.25H61.8888H61.2053C61.0189 154.884 60.8946 154.73 60.8946 154.575C60.8946 154.421 61.05 154.266 61.2053 154.266H61.8578C62.3549 154.266 62.7588 154.081 63.0073 153.741C63.2869 153.37 63.318 152.875 63.1316 152.319L60.2422 143.541H47.5973C47.4109 143.541 47.2866 142.675 47.2866 142.49C47.2866 142.304 47.4419 142.181 47.5973 142.181H59.7762L54.0906 124.748C53.0032 121.472 49.4614 118.783 46.1681 118.783C45.9817 118.783 45.8574 118.628 45.8574 118.474C45.8574 118.288 46.0128 118.165 46.1681 118.165H53.6246C57.1353 118.165 60.9568 121.008 62.1374 124.501L71.2094 152.133C71.5822 153.308 72.8561 154.266 74.0367 154.266H74.6891C74.8755 154.266 75.0309 154.421 75.0309 154.575Z" fill="white"/>
<path d="M113.121 121.101L102.651 148.98V149.011C102.651 149.011 102.651 149.011 102.651 149.042L100.507 154.729C100.445 154.853 100.321 154.946 100.197 154.946C100.197 154.946 102.247 154.946 102.993 154.946H99.3269C95.0705 154.946 94.9151 152.102 93.7345 148.609L85.9363 124.779C84.8489 121.502 81.3071 118.844 78.0138 118.844C77.8274 118.844 77.7031 118.69 77.7031 118.535C77.7031 118.381 77.8585 118.226 78.0138 118.226H85.4703C89.0121 118.226 92.8335 121.07 94.0141 124.593L94.0452 124.624L101.688 147.991L111.848 120.977C111.91 120.822 112.842 120.73 112.997 120.792C113.09 120.761 113.183 120.946 113.121 121.101Z" fill="white"/>
<path d="M87.3963 154.575C87.3963 154.761 87.2409 154.884 87.0856 154.884H86.4332H84.0719H80.9651H80.3126C80.1262 154.884 80.002 154.73 80.002 154.575C80.002 154.421 80.1573 154.266 80.3126 154.266H80.9651C82.0835 154.266 83.0156 153.37 83.0156 152.226V119.803C83.0156 119.617 83.8855 119.494 84.0719 119.494C84.2584 119.494 84.3826 119.648 84.3826 119.803V152.226C84.3826 153.339 85.2836 154.266 86.4332 154.266H87.0856C87.2409 154.266 87.3963 154.421 87.3963 154.575Z" fill="white"/>
<path d="M122.348 154.575C122.348 154.761 122.193 154.884 122.038 154.884H121.385H119.024H112.127H109.765H109.051C108.865 154.884 108.74 154.73 108.74 154.575C108.74 154.421 108.896 154.266 109.051 154.266H109.703C110.822 154.266 111.754 153.37 111.754 152.226V118.474C111.754 118.288 111.909 118.165 112.065 118.165H121.323H121.975C122.162 118.165 122.286 118.319 122.286 118.474C122.286 118.628 122.131 118.783 121.975 118.783H121.323C120.205 118.783 119.273 119.679 119.273 120.823V152.226C119.273 153.339 120.173 154.266 121.323 154.266H121.975C122.193 154.266 122.348 154.421 122.348 154.575Z" fill="white"/>
<path d="M140.12 154.575C140.12 154.761 139.965 154.884 139.809 154.884H139.157H127.537H126.885C126.698 154.884 126.574 154.73 126.574 154.575C126.574 154.421 126.73 154.266 126.885 154.266H127.537C128.656 154.266 129.588 153.37 129.588 152.226V120.823C129.588 119.71 128.687 118.783 127.537 118.783H126.885C126.698 118.783 126.574 118.628 126.574 118.474C126.574 118.319 126.73 118.165 126.885 118.165H127.537H129.899H136.796H139.157H139.809C139.996 118.165 140.12 118.319 140.12 118.474C140.12 118.628 139.965 118.783 139.809 118.783H139.157C138.039 118.783 137.106 119.679 137.106 120.823V152.226C137.106 153.339 138.007 154.266 139.157 154.266H139.809C139.965 154.266 140.12 154.421 140.12 154.575Z" fill="white"/>
<path d="M176.625 119.648V154.575C176.625 154.761 175.755 154.884 175.568 154.884H173.922C170.38 154.884 166.248 152.01 164.725 148.517L154.38 124.779C152.95 121.472 149.067 118.783 145.774 118.783C145.587 118.783 145.463 118.628 145.463 118.474C145.463 118.288 145.618 118.165 145.774 118.165H153.572C157.114 118.165 161.277 121.008 162.83 124.532L173.176 148.27C173.642 149.321 174.357 150.341 175.258 151.237V119.648C175.258 119.463 175.413 119.339 175.568 119.339C175.724 119.339 176.625 119.463 176.625 119.648Z" fill="white"/>
<path d="M156.027 154.575C156.027 154.761 155.872 154.884 155.716 154.884H155.033H152.672H149.596H148.943C148.757 154.884 148.633 154.73 148.633 154.575C148.633 154.39 148.788 154.266 148.943 154.266H149.596C150.652 154.266 151.522 153.462 151.615 152.442V120.823C151.615 120.637 152.485 120.514 152.672 120.514C152.858 120.514 152.982 120.668 152.982 120.823V152.164C152.982 152.195 152.982 152.226 152.982 152.226C152.982 153.339 153.883 154.266 155.033 154.266H155.685C155.872 154.266 156.027 154.421 156.027 154.575Z" fill="white"/>
<path d="M38.3694 169.844V170.586H36.0081V179.302H35.2004V170.586H34.3926V169.844H35.2004V167.68C35.2004 166.228 36.1946 165.517 38.183 165.517H38.7733V166.258H38.183C36.7227 166.258 36.0081 166.722 36.0081 167.711V169.875H38.3694V169.844Z" fill="white"/>
<path d="M50.4554 177.354C50.4554 178.807 49.4612 179.518 47.4728 179.518C45.4844 179.518 44.4902 178.776 44.4902 177.354V171.822C44.4902 170.369 45.4844 169.658 47.4728 169.658C49.4612 169.658 50.4554 170.4 50.4554 171.822V177.354ZM49.6476 171.822C49.6476 170.864 48.902 170.369 47.4728 170.369C46.0437 170.369 45.298 170.833 45.298 171.822V177.354C45.298 178.313 46.0437 178.807 47.4728 178.807C48.902 178.807 49.6476 178.344 49.6476 177.354V171.822Z" fill="white"/>
<path d="M62.0441 169.844H62.8519V179.302H62.1373L62.0441 178.993C61.3917 179.333 60.5217 179.487 59.4654 179.487C57.9741 179.487 56.8867 178.807 56.8867 177.324V169.844H57.6945V177.324C57.6945 178.282 58.4401 178.776 59.8693 178.776C60.6771 178.776 61.4849 178.622 61.7956 178.529L62.0441 178.436V169.844Z" fill="white"/>
<path d="M70.3705 179.302H69.5938V169.844H70.2773L70.3705 170.153C71.0229 169.813 71.8928 169.658 72.9492 169.658C74.4405 169.658 75.5279 170.338 75.5279 171.822V179.302H74.7201V171.822C74.7201 170.864 73.9744 170.369 72.5453 170.369C71.7375 170.369 70.9297 170.524 70.619 170.616L70.3705 170.709V179.302Z" fill="white"/>
<path d="M87.1166 165.517H87.9243V179.302H87.2408L87.1476 178.993C86.4952 179.333 85.6253 179.487 84.5689 179.487C83.0776 179.487 81.9902 178.807 81.9902 177.324V171.791C81.9902 170.307 83.0466 169.627 84.5689 169.627C85.5321 169.627 86.4641 169.813 86.868 169.967L87.1476 170.091V165.517H87.1166ZM87.1166 178.436V170.74C86.5884 170.493 85.8738 170.4 84.9418 170.4C83.4815 170.4 82.7669 170.864 82.7669 171.853V177.386C82.7669 178.344 83.5126 178.838 84.9418 178.838C85.7495 178.838 86.5573 178.684 86.868 178.591L87.1166 178.436Z" fill="white"/>
<path d="M99.6686 169.844H100.352V179.302H99.6686L99.5754 178.993C98.9229 179.333 98.053 179.487 96.9967 179.487C95.5054 179.487 94.418 178.807 94.418 177.324V171.791C94.418 170.307 95.4743 169.627 96.9967 169.627C97.9598 169.627 98.8919 169.813 99.2957 169.967L99.5754 170.091L99.6686 169.844ZM99.5754 178.436V170.74C99.0472 170.493 98.3326 170.4 97.4006 170.4C95.9403 170.4 95.2258 170.864 95.2258 171.853V177.386C95.2258 178.344 95.9714 178.838 97.4006 178.838C98.2083 178.838 99.0161 178.684 99.3268 178.591L99.5754 178.436Z" fill="white"/>
<path d="M110.572 170.586H108.211V177.139C108.211 178.097 108.957 178.591 110.386 178.591H110.976V179.333H110.386C108.398 179.333 107.403 178.591 107.403 177.169V170.617H106.596V169.875H107.403V168.113L107.901 167.928H108.211V169.906H110.572V170.586Z" fill="white"/>
<path d="M117.098 165.517H117.874V168.669H117.098V165.517ZM117.098 179.302V169.844H117.874V179.302H117.098Z" fill="white"/>
<path d="M130.395 177.354C130.395 178.807 129.401 179.518 127.412 179.518C125.424 179.518 124.43 178.776 124.43 177.354V171.822C124.43 170.369 125.424 169.658 127.412 169.658C129.401 169.658 130.395 170.4 130.395 171.822V177.354ZM129.587 171.822C129.587 170.864 128.841 170.369 127.412 170.369C125.952 170.369 125.237 170.833 125.237 171.822V177.354C125.237 178.313 125.983 178.807 127.412 178.807C128.872 178.807 129.587 178.344 129.587 177.354V171.822Z" fill="white"/>
<path d="M137.726 179.302H136.949V169.844H137.633L137.726 170.153C138.378 169.813 139.248 169.658 140.305 169.658C141.796 169.658 142.883 170.338 142.883 171.822V179.302H142.076V171.822C142.076 170.864 141.33 170.369 139.901 170.369C139.093 170.369 138.285 170.524 137.974 170.616L137.726 170.709V179.302Z" fill="white"/>
<path d="M89.2904 50.1344C90.2685 50.1344 91.0613 49.3456 91.0613 48.3726C91.0613 47.3996 90.2685 46.6108 89.2904 46.6108C88.3124 46.6108 87.5195 47.3996 87.5195 48.3726C87.5195 49.3456 88.3124 50.1344 89.2904 50.1344Z" fill="white"/>
<path fill-rule="evenodd" clip-rule="evenodd" d="M84.9111 52.7309C85.3771 51.8963 88.049 50.5981 88.049 50.5981C88.049 50.5981 88.3597 53.5654 87.8937 54.369C87.4277 55.1726 84.7557 56.5017 84.7557 56.5017C84.7557 56.5017 84.4451 53.5654 84.9111 52.7309Z" fill="white"/>
<path fill-rule="evenodd" clip-rule="evenodd" d="M90.9071 54.3383C90.41 53.5346 90.6274 50.5674 90.6274 50.5674C90.6274 50.5674 93.3615 51.7728 93.8586 52.6074C94.3557 53.411 94.1382 56.3782 94.1382 56.3782C94.1382 56.3782 91.4042 55.1419 90.9071 54.3383Z" fill="white"/>
<path fill-rule="evenodd" clip-rule="evenodd" d="M95.3179 49.9492C94.3859 49.9801 91.9004 48.3111 91.9004 48.3111C91.9004 48.3111 94.3238 46.5802 95.2869 46.5493C96.25 46.5183 98.7044 48.1874 98.7044 48.1874C98.7044 48.1874 96.2811 49.9492 95.3179 49.9492Z" fill="white"/>
<path fill-rule="evenodd" clip-rule="evenodd" d="M93.7023 43.9838C93.2362 44.8183 90.5643 46.1165 90.5643 46.1165C90.5643 46.1165 90.2537 43.1492 90.7197 42.3456C91.1857 41.542 93.8576 40.2129 93.8576 40.2129C93.8576 40.2129 94.1683 43.1492 93.7023 43.9838Z" fill="white"/>
<path fill-rule="evenodd" clip-rule="evenodd" d="M87.675 42.3764C88.1721 43.18 87.9546 46.1473 87.9546 46.1473C87.9546 46.1473 85.2206 44.9418 84.7235 44.1073C84.2264 43.3037 84.4438 40.3364 84.4438 40.3364C84.4438 40.3364 87.2089 41.5728 87.675 42.3764Z" fill="white"/>
<path fill-rule="evenodd" clip-rule="evenodd" d="M83.2947 46.7656C84.2267 46.7347 86.7122 48.4037 86.7122 48.4037C86.7122 48.4037 84.2889 50.1346 83.3258 50.1655C82.3626 50.1964 79.9082 48.5274 79.9082 48.5274C79.9082 48.5274 82.3316 46.7656 83.2947 46.7656Z" fill="white"/>
<path d="M51.7917 58.8196V70.4722L61.9511 76.314L67.8231 86.4212H79.536L89.6954 92.2629L99.8549 86.4212H111.537L117.409 76.314L127.568 70.4722V58.8196L133.44 48.7124L127.568 38.6053V26.9527L117.409 21.1109L111.537 11.0346H99.8238L89.6644 5.19287L79.5049 11.0346H67.7921L61.9201 21.1418L51.7606 26.9836V38.6362L45.8887 48.7433L51.7917 58.8196ZM55.0539 59.2832H64.9959L69.4698 51.556L77.734 56.316V63.9814H67.7921L62.5725 72.9449L55.0229 68.6177V59.2832H55.0539ZM80.9962 43.3343V33.629L89.6644 38.6053L98.3325 33.629V43.3343L106.535 48.0324L98.3325 52.7306V63.085L89.6644 58.1087L80.9962 63.085V54.3687L71.3649 48.8361L80.9962 43.3343ZM65.058 75.2013L69.6872 67.2268H77.8894L83.1089 76.1903L79.07 83.1757H69.7183L65.058 75.2013ZM82.2079 84.1957L86.8682 76.1903L81.338 66.6704L89.6644 61.8796L97.2762 66.2686L92.4916 74.5213L97.8665 83.7939L89.6644 88.492L82.2079 84.1957ZM109.673 83.1757H101.284L96.282 74.5522L100.538 67.2268H109.673L114.302 75.2013L109.673 83.1757ZM116.756 72.9449L111.537 63.9814H101.595V54.6469L109.144 50.3197L114.364 59.2832H124.306V68.6177L116.756 72.9449ZM129.65 48.7124L125.393 56.0378H116.228L111.599 48.0634L116.228 40.0889H124.617L129.65 48.7124ZM124.306 36.8435H114.364L109.144 45.807L101.595 41.4798V32.7944H111.537L116.446 24.3254L124.275 28.8381V36.8435H124.306ZM114.084 21.9145L109.673 29.549H100.88L96.2509 21.5745L100.507 14.2491H109.673L114.084 21.9145ZM97.2762 13.3219L92.4916 21.5745L97.5869 30.3217L89.6644 34.8653L81.7419 30.3217L86.8371 21.5745L82.0526 13.3219L89.6644 8.93283L97.2762 13.3219ZM69.6872 14.2801H78.8525L83.1089 21.6054L78.4797 29.5799H69.6872L65.2444 21.9145L69.6872 14.2801ZM62.8832 24.3254L67.7921 32.7944H77.734V41.4798L69.4698 46.2397L64.9959 38.5125H55.0539V28.8381L62.8832 24.3254ZM53.749 41.7271H63.1007L67.2639 48.867L63.1007 56.0069H53.9354L49.679 48.6815L53.749 41.7271Z" fill="white"/>
</svg>
