<?xml version="1.0" encoding="utf-8"?>
<svg viewBox="0 0 500 500" xmlns="http://www.w3.org/2000/svg">
  <path d="M 247.454 257.339 C 252.903 257.339 257.321 252.919 257.321 247.47 C 257.321 242.024 252.903 237.613 247.454 237.613 C 242.007 237.613 237.585 242.024 237.585 247.47 C 237.585 252.919 242.007 257.339 247.454 257.339 Z" fill="#00B2B3" style="" transform="matrix(0.9999999999999999, 0, 0, 0.9999999999999999, -5.684341886080802e-14, 0)"/>
  <path fill-rule="evenodd" clip-rule="evenodd" d="M 223.065 271.88 C 225.653 267.207 240.545 259.936 240.545 259.936 C 240.545 259.936 242.271 276.555 239.675 281.048 C 237.077 285.553 222.196 292.996 222.196 292.996 C 222.196 292.996 220.47 276.555 223.065 271.88 Z" fill="#00B2B3" style="" transform="matrix(0.9999999999999999, 0, 0, 0.9999999999999999, -5.684341886080802e-14, 0)"/>
  <path fill-rule="evenodd" clip-rule="evenodd" d="M 256.474 280.879 C 253.698 276.375 254.915 259.767 254.915 259.767 C 254.915 259.767 270.147 266.518 272.914 271.191 C 275.68 275.686 274.473 292.306 274.473 292.306 C 274.473 292.306 259.241 285.384 256.474 280.879 Z" fill="#00B2B3" style="" transform="matrix(0.9999999999999999, 0, 0, 0.9999999999999999, -5.684341886080802e-14, 0)"/>
  <path fill-rule="evenodd" clip-rule="evenodd" d="M 281.032 256.299 C 275.841 256.48 261.996 247.131 261.996 247.131 C 261.996 247.131 275.499 237.432 280.862 237.263 C 286.226 237.094 299.901 246.432 299.901 246.432 C 299.901 246.432 286.406 256.299 281.032 256.299 Z" fill="#00B2B3" style="" transform="matrix(0.9999999999999999, 0, 0, 0.9999999999999999, -5.684341886080802e-14, 0)"/>
  <path fill-rule="evenodd" clip-rule="evenodd" d="M 272.033 222.902 C 269.438 227.565 254.556 234.837 254.556 234.837 C 254.556 234.837 252.817 218.228 255.415 213.723 C 258.01 209.229 272.903 201.778 272.903 201.778 C 272.903 201.778 274.632 218.228 272.033 222.902 Z" fill="#00B2B3" style="" transform="matrix(0.9999999999999999, 0, 0, 0.9999999999999999, -5.684341886080802e-14, 0)"/>
  <path fill-rule="evenodd" clip-rule="evenodd" d="M 238.466 213.892 C 241.232 218.397 240.025 235.018 240.025 235.018 C 240.025 235.018 224.794 228.266 222.026 223.591 C 219.25 219.086 220.47 202.476 220.47 202.476 C 220.47 202.476 235.87 209.399 238.466 213.892 Z" fill="#00B2B3" style="" transform="matrix(0.9999999999999999, 0, 0, 0.9999999999999999, -5.684341886080802e-14, 0)"/>
  <path fill-rule="evenodd" clip-rule="evenodd" d="M 214.056 238.472 C 219.25 238.302 233.102 247.651 233.102 247.651 C 233.102 247.651 219.6 257.339 214.236 257.52 C 208.863 257.689 195.19 248.34 195.19 248.34 C 195.19 248.34 208.692 238.472 214.056 238.472 Z" fill="#00B2B3" style="" transform="matrix(0.9999999999999999, 0, 0, 0.9999999999999999, -5.684341886080802e-14, 0)"/>
  <path d="M 38.554 305.979 L 38.554 371.229 L 95.155 403.937 L 127.863 460.537 L 193.111 460.537 L 249.712 493.246 L 306.312 460.537 L 371.392 460.537 L 404.1 403.937 L 460.7 371.229 L 460.7 305.979 L 493.409 249.38 L 460.7 192.778 L 460.7 127.53 L 404.1 94.821 L 371.392 38.389 L 306.131 38.389 L 249.543 5.681 L 192.942 38.389 L 127.694 38.389 L 94.986 94.992 L 38.383 127.7 L 38.383 192.958 L 5.675 249.549 L 38.554 305.979 Z M 56.732 308.575 L 112.113 308.575 L 137.042 265.3 L 183.076 291.956 L 183.076 334.883 L 127.694 334.883 L 98.609 385.071 L 56.552 360.841 L 56.552 308.575 L 56.732 308.575 Z M 201.253 219.267 L 201.253 164.913 L 249.543 192.778 L 297.833 164.913 L 297.833 219.267 L 343.525 245.572 L 297.833 271.88 L 297.833 329.858 L 249.543 301.994 L 201.253 329.858 L 201.253 281.048 L 147.599 250.069 L 201.253 219.267 Z M 112.463 397.705 L 138.251 353.049 L 183.943 353.049 L 213.016 403.248 L 190.515 442.359 L 138.421 442.359 L 112.463 397.705 Z M 208.003 448.073 L 233.962 403.248 L 203.149 349.934 L 249.543 323.108 L 291.939 347.686 L 265.292 393.899 L 295.235 445.824 L 249.543 472.134 L 208.003 448.073 Z M 361.004 442.359 L 314.271 442.359 L 286.406 394.07 L 310.116 353.049 L 361.004 353.049 L 386.791 397.705 L 361.004 442.359 Z M 400.465 385.071 L 371.392 334.883 L 316 334.883 L 316 282.607 L 358.056 258.378 L 387.141 308.575 L 442.522 308.575 L 442.522 360.841 L 400.465 385.071 Z M 472.297 249.38 L 448.586 290.397 L 397.518 290.397 L 371.731 245.743 L 397.518 201.089 L 444.251 201.089 L 472.297 249.38 Z M 442.522 182.913 L 387.141 182.913 L 358.056 233.108 L 316 208.879 L 316 160.238 L 371.392 160.238 L 398.737 112.818 L 442.353 138.088 L 442.353 182.913 L 442.522 182.913 Z M 385.585 99.316 L 361.004 142.072 L 312.026 142.072 L 286.236 97.418 L 309.947 56.397 L 361.004 56.397 L 385.585 99.316 Z M 291.939 51.205 L 265.292 97.418 L 293.679 146.396 L 249.543 171.835 L 205.407 146.396 L 233.791 97.418 L 207.136 51.205 L 249.543 26.626 L 291.939 51.205 Z M 138.251 56.569 L 189.307 56.569 L 213.016 97.587 L 187.231 142.243 L 138.251 142.243 L 113.501 99.316 L 138.251 56.569 Z M 100.348 112.818 L 127.694 160.238 L 183.076 160.238 L 183.076 208.879 L 137.042 235.537 L 112.113 192.26 L 56.732 192.26 L 56.732 138.088 L 100.348 112.818 Z M 49.46 210.269 L 101.555 210.269 L 124.748 250.247 L 101.555 290.228 L 50.5 290.228 L 26.789 249.21 L 49.46 210.269 Z" fill="#00B2B3" style="" transform="matrix(0.9999999999999999, 0, 0, 0.9999999999999999, -5.684341886080802e-14, 0)"/>
  <path d="M 247.454 257.339 C 252.903 257.339 257.321 252.919 257.321 247.47 C 257.321 242.024 252.903 237.613 247.454 237.613 C 242.007 237.613 237.585 242.024 237.585 247.47 C 237.585 252.919 242.007 257.339 247.454 257.339 Z" fill="#00B2B3" style="" transform="matrix(0.9999999999999999, 0, 0, 0.9999999999999999, -5.684341886080802e-14, 0)"/>
  <path fill-rule="evenodd" clip-rule="evenodd" d="M 223.065 271.88 C 225.653 267.207 240.545 259.936 240.545 259.936 C 240.545 259.936 242.271 276.555 239.675 281.048 C 237.077 285.553 222.196 292.996 222.196 292.996 C 222.196 292.996 220.47 276.555 223.065 271.88 Z" fill="#00B2B3" style="" transform="matrix(0.9999999999999999, 0, 0, 0.9999999999999999, -5.684341886080802e-14, 0)"/>
  <path fill-rule="evenodd" clip-rule="evenodd" d="M 256.474 280.879 C 253.698 276.375 254.915 259.767 254.915 259.767 C 254.915 259.767 270.147 266.518 272.914 271.191 C 275.68 275.686 274.473 292.306 274.473 292.306 C 274.473 292.306 259.241 285.384 256.474 280.879 Z" fill="#00B2B3" style="" transform="matrix(0.9999999999999999, 0, 0, 0.9999999999999999, -5.684341886080802e-14, 0)"/>
  <path fill-rule="evenodd" clip-rule="evenodd" d="M 281.032 256.299 C 275.841 256.48 261.996 247.131 261.996 247.131 C 261.996 247.131 275.499 237.432 280.862 237.263 C 286.226 237.094 299.901 246.432 299.901 246.432 C 299.901 246.432 286.406 256.299 281.032 256.299 Z" fill="#00B2B3" style="" transform="matrix(0.9999999999999999, 0, 0, 0.9999999999999999, -5.684341886080802e-14, 0)"/>
  <path fill-rule="evenodd" clip-rule="evenodd" d="M 272.033 222.902 C 269.438 227.565 254.556 234.837 254.556 234.837 C 254.556 234.837 252.817 218.228 255.415 213.723 C 258.01 209.229 272.903 201.778 272.903 201.778 C 272.903 201.778 274.632 218.228 272.033 222.902 Z" fill="#00B2B3" style="" transform="matrix(0.9999999999999999, 0, 0, 0.9999999999999999, -5.684341886080802e-14, 0)"/>
  <path fill-rule="evenodd" clip-rule="evenodd" d="M 238.466 213.892 C 241.232 218.397 240.025 235.018 240.025 235.018 C 240.025 235.018 224.794 228.266 222.026 223.591 C 219.25 219.086 220.47 202.476 220.47 202.476 C 220.47 202.476 235.87 209.399 238.466 213.892 Z" fill="#00B2B3" style="" transform="matrix(0.9999999999999999, 0, 0, 0.9999999999999999, -5.684341886080802e-14, 0)"/>
  <path fill-rule="evenodd" clip-rule="evenodd" d="M 214.056 238.472 C 219.25 238.302 233.102 247.651 233.102 247.651 C 233.102 247.651 219.6 257.339 214.236 257.52 C 208.863 257.689 195.19 248.34 195.19 248.34 C 195.19 248.34 208.692 238.472 214.056 238.472 Z" fill="#00B2B3" style="" transform="matrix(0.9999999999999999, 0, 0, 0.9999999999999999, -5.684341886080802e-14, 0)"/>
  <path d="M 38.554 305.979 L 38.554 371.229 L 95.155 403.937 L 127.863 460.537 L 193.111 460.537 L 249.712 493.246 L 306.312 460.537 L 371.392 460.537 L 404.1 403.937 L 460.7 371.229 L 460.7 305.979 L 493.409 249.38 L 460.7 192.778 L 460.7 127.53 L 404.1 94.821 L 371.392 38.389 L 306.131 38.389 L 249.543 5.681 L 192.942 38.389 L 127.694 38.389 L 94.986 94.992 L 38.383 127.7 L 38.383 192.958 L 5.675 249.549 L 38.554 305.979 Z M 56.732 308.575 L 112.113 308.575 L 137.042 265.3 L 183.076 291.956 L 183.076 334.883 L 127.694 334.883 L 98.609 385.071 L 56.552 360.841 L 56.552 308.575 L 56.732 308.575 Z M 201.253 219.267 L 201.253 164.913 L 249.543 192.778 L 297.833 164.913 L 297.833 219.267 L 343.525 245.572 L 297.833 271.88 L 297.833 329.858 L 249.543 301.994 L 201.253 329.858 L 201.253 281.048 L 147.599 250.069 L 201.253 219.267 Z M 112.463 397.705 L 138.251 353.049 L 183.943 353.049 L 213.016 403.248 L 190.515 442.359 L 138.421 442.359 L 112.463 397.705 Z M 208.003 448.073 L 233.962 403.248 L 203.149 349.934 L 249.543 323.108 L 291.939 347.686 L 265.292 393.899 L 295.235 445.824 L 249.543 472.134 L 208.003 448.073 Z M 361.004 442.359 L 314.271 442.359 L 286.406 394.07 L 310.116 353.049 L 361.004 353.049 L 386.791 397.705 L 361.004 442.359 Z M 400.465 385.071 L 371.392 334.883 L 316 334.883 L 316 282.607 L 358.056 258.378 L 387.141 308.575 L 442.522 308.575 L 442.522 360.841 L 400.465 385.071 Z M 472.297 249.38 L 448.586 290.397 L 397.518 290.397 L 371.731 245.743 L 397.518 201.089 L 444.251 201.089 L 472.297 249.38 Z M 442.522 182.913 L 387.141 182.913 L 358.056 233.108 L 316 208.879 L 316 160.238 L 371.392 160.238 L 398.737 112.818 L 442.353 138.088 L 442.353 182.913 L 442.522 182.913 Z M 385.585 99.316 L 361.004 142.072 L 312.026 142.072 L 286.236 97.418 L 309.947 56.397 L 361.004 56.397 L 385.585 99.316 Z M 291.939 51.205 L 265.292 97.418 L 293.679 146.396 L 249.543 171.835 L 205.407 146.396 L 233.791 97.418 L 207.136 51.205 L 249.543 26.626 L 291.939 51.205 Z M 138.251 56.569 L 189.307 56.569 L 213.016 97.587 L 187.231 142.243 L 138.251 142.243 L 113.501 99.316 L 138.251 56.569 Z M 100.348 112.818 L 127.694 160.238 L 183.076 160.238 L 183.076 208.879 L 137.042 235.537 L 112.113 192.26 L 56.732 192.26 L 56.732 138.088 L 100.348 112.818 Z M 49.46 210.269 L 101.555 210.269 L 124.748 250.247 L 101.555 290.228 L 50.5 290.228 L 26.789 249.21 L 49.46 210.269 Z" fill="#00B2B3" style="" transform="matrix(0.9999999999999999, 0, 0, 0.9999999999999999, -5.684341886080802e-14, 0)"/>
</svg>