<svg width="64" height="64" viewBox="0 0 64 64" fill="none" xmlns="http://www.w3.org/2000/svg">
<path d="M51.1772 5.75H8.73469C8.46482 5.74998 8.19759 5.80313 7.94825 5.90639C7.69892 6.00966 7.47237 6.16103 7.28155 6.35186C7.09072 6.54269 6.93935 6.76923 6.83608 7.01857C6.73281 7.2679 6.67967 7.53513 6.67969 7.805V37H53.2322V7.805C53.2322 7.53513 53.1791 7.2679 53.0758 7.01857C52.9725 6.76923 52.8212 6.54269 52.6303 6.35186C52.4395 6.16103 52.213 6.00966 51.9636 5.90639C51.7143 5.80313 51.4471 5.74998 51.1772 5.75Z" fill="#73849B"/>
<path d="M10.4297 7.805C10.4297 7.53513 10.4828 7.2679 10.5861 7.01857C10.6893 6.76923 10.8407 6.54269 11.0315 6.35186C11.2224 6.16103 11.4489 6.00966 11.6983 5.90639C11.9476 5.80313 12.2148 5.74998 12.4847 5.75H8.73469C8.46482 5.74998 8.19759 5.80313 7.94825 5.90639C7.69892 6.00966 7.47237 6.16103 7.28155 6.35186C7.09072 6.54269 6.93935 6.76923 6.83608 7.01857C6.73281 7.2679 6.67967 7.53513 6.67969 7.805V35.79H10.4297" fill="#91A6BC"/>
<path d="M13.2305 34.1074V41.2999H43.538V34.1074H13.2305Z" fill="#D4E1F4"/>
<path d="M60.9296 32.3289H43.9821C43.7596 32.3287 43.5392 32.3724 43.3336 32.4574C43.1279 32.5425 42.9411 32.6672 42.7836 32.8245C42.6262 32.9818 42.5014 33.1686 42.4162 33.3741C42.331 33.5797 42.2871 33.8001 42.2871 34.0226V56.5564C42.2873 57.0057 42.466 57.4366 42.7839 57.7542C43.1018 58.0718 43.5328 58.2502 43.9821 58.2501H60.9296C61.379 58.2502 61.81 58.0718 62.1278 57.7542C62.4457 57.4366 62.6244 57.0057 62.6246 56.5564V34.0226C62.6246 33.8001 62.5808 33.5797 62.4956 33.3741C62.4104 33.1686 62.2855 32.9818 62.1281 32.8245C61.9707 32.6672 61.7838 32.5425 61.5782 32.4574C61.3725 32.3724 61.1521 32.3287 60.9296 32.3289Z" fill="#6D7486"/>
<path d="M15.73 53.0476V56.3364C15.7302 56.5877 15.6808 56.8367 15.5847 57.0689C15.4885 57.3012 15.3476 57.5122 15.1698 57.69C14.9921 57.8677 14.7811 58.0087 14.5488 58.1048C14.3165 58.2009 14.0676 58.2503 13.8162 58.2501H3.28875C2.7812 58.2501 2.29445 58.0484 1.93556 57.6895C1.57667 57.3307 1.37503 56.8439 1.375 56.3364V53.0476H15.73Z" fill="#6D7486"/>
<path d="M1.375 35.79H15.73V53.0475H1.375V35.79Z" fill="#FB6771"/>
<path d="M13.8162 32.1711H3.28875C2.7812 32.1712 2.29445 32.3728 1.93556 32.7317C1.57667 33.0906 1.37503 33.5773 1.375 34.0849V35.7899H15.73V34.0849C15.7302 33.8335 15.6808 33.5846 15.5847 33.3523C15.4885 33.1201 15.3476 32.909 15.1698 32.7313C14.9921 32.5536 14.7811 32.4126 14.5488 32.3165C14.3165 32.2204 14.0676 32.171 13.8162 32.1711Z" fill="#6D7486"/>
<path d="M44.8301 35.1238H60.0826V53.76H44.8301V35.1238Z" fill="#88CED8"/>
<path d="M37.3574 46.445C37.7623 46.4449 38.1632 46.5245 38.5372 46.6794C38.9113 46.8342 39.2512 47.0613 39.5374 47.3476C39.8237 47.6338 40.0507 47.9737 40.2056 48.3478C40.3605 48.7218 40.4401 49.1227 40.4399 49.5275H18.8574C18.8573 49.1226 18.9369 48.7216 19.0919 48.3475C19.2468 47.9733 19.474 47.6334 19.7604 47.3471C20.0468 47.0608 20.3868 46.8338 20.761 46.679C21.1352 46.5242 21.5362 46.4447 21.9412 46.445C22.211 46.4451 22.4783 46.3919 22.7276 46.2887C22.9769 46.1854 23.2035 46.034 23.3943 45.8432C23.5851 45.6524 23.7365 45.4258 23.8398 45.1765C23.943 44.9272 23.9962 44.6599 23.9962 44.39V41.3H35.3012V44.39C35.3014 44.9352 35.5182 45.4579 35.9038 45.8433C36.2894 46.2287 36.8123 46.4451 37.3574 46.445Z" fill="#BDCBDB"/>
<path d="M29.6486 36.6763C29.8518 36.6763 30.0505 36.7365 30.2194 36.8494C30.3884 36.9623 30.5201 37.1228 30.5979 37.3106C30.6757 37.4983 30.696 37.7049 30.6564 37.9042C30.6167 38.1035 30.5188 38.2866 30.3751 38.4303C30.2314 38.574 30.0484 38.6719 29.849 38.7115C29.6497 38.7512 29.4431 38.7308 29.2554 38.6531C29.0676 38.5753 28.9072 38.4436 28.7943 38.2746C28.6814 38.1056 28.6211 37.907 28.6211 37.7038C28.6214 37.4313 28.7297 37.1701 28.9223 36.9775C29.115 36.7849 29.3762 36.6765 29.6486 36.6763Z" fill="#6D7486"/>
<path d="M1.375 35.79H5.125V53.0475H1.375V35.79Z" fill="#FF99A3"/>
<path d="M7.03875 32.1711H3.28875C2.7812 32.1712 2.29445 32.3728 1.93556 32.7317C1.57667 33.0906 1.37503 33.5773 1.375 34.0849V35.7899H5.125V34.0849C5.12503 33.5773 5.32667 33.0906 5.68556 32.7317C6.04445 32.3728 6.5312 32.1712 7.03875 32.1711Z" fill="#B0B5CA"/>
<path d="M5.125 56.3364V53.0476H1.375V56.3364C1.37503 56.8439 1.57667 57.3307 1.93556 57.6895C2.29445 58.0484 2.7812 58.2501 3.28875 58.2501H7.03875C6.5312 58.2501 6.04445 58.0484 5.68556 57.6895C5.32667 57.3307 5.12503 56.8439 5.125 56.3364Z" fill="#B0B5CA"/>
<path d="M44.8301 35.1238H48.5801V53.76H44.8301V35.1238Z" fill="#ADF2F7"/>
<path d="M28.8614 47.1948H28.8125C28.6136 47.1948 28.4228 47.1158 28.2822 46.9752C28.1415 46.8345 28.0625 46.6437 28.0625 46.4448C28.0625 46.2459 28.1415 46.0551 28.2822 45.9145C28.4228 45.7738 28.6136 45.6948 28.8125 45.6948H28.8614C29.0603 45.6948 29.2511 45.7738 29.3917 45.9145C29.5324 46.0551 29.6114 46.2459 29.6114 46.4448C29.6114 46.6437 29.5324 46.8345 29.3917 46.9752C29.2511 47.1158 29.0603 47.1948 28.8614 47.1948Z" fill="#B0B5CA"/>
<path d="M53.3645 56.5435H51.5469C51.348 56.5435 51.1572 56.4644 51.0165 56.3238C50.8759 56.1831 50.7969 55.9924 50.7969 55.7935C50.7969 55.5945 50.8759 55.4038 51.0165 55.2631C51.1572 55.1225 51.348 55.0435 51.5469 55.0435H53.3645C53.5634 55.0435 53.7542 55.1225 53.8948 55.2631C54.0355 55.4038 54.1145 55.5945 54.1145 55.7935C54.1145 55.9924 54.0355 56.1831 53.8948 56.3238C53.7542 56.4644 53.5634 56.5435 53.3645 56.5435Z" fill="#4A5160"/>
<path d="M8.55198 56.6352C8.3327 56.6352 8.11835 56.5701 7.93603 56.4483C7.75371 56.3265 7.61162 56.1533 7.52772 55.9507C7.44382 55.7481 7.42188 55.5252 7.46468 55.3101C7.50747 55.095 7.61308 54.8975 7.76815 54.7424C7.92322 54.5874 8.12078 54.4818 8.33585 54.439C8.55092 54.3962 8.77385 54.4182 8.97644 54.5021C9.17903 54.5861 9.35218 54.7282 9.47401 54.9105C9.59583 55.0928 9.66086 55.3072 9.66086 55.5265C9.66053 55.8204 9.54359 56.1023 9.3357 56.3102C9.12782 56.518 8.84596 56.6349 8.55198 56.6352Z" fill="#4A5160"/>
<path d="M30.6758 46.4447C30.6758 46.6436 30.7548 46.8344 30.8955 46.975C31.0361 47.1157 31.2269 47.1947 31.4258 47.1947H37.4595C37.6379 47.1945 37.8104 47.1307 37.946 47.0148C38.0816 46.8989 38.1714 46.7385 38.1994 46.5623C37.9253 46.4844 37.6418 46.4449 37.3569 46.4448C37.0532 46.4451 36.7532 46.378 36.4785 46.2483C36.2039 46.1186 35.9614 45.9296 35.7686 45.6948H31.4258C31.2269 45.6948 31.0361 45.7738 30.8955 45.9145C30.7548 46.0551 30.6758 46.2458 30.6758 46.4447Z" fill="#B0B5CA"/>
</svg>
