<svg width="64" height="64" viewBox="0 0 64 64" fill="none" xmlns="http://www.w3.org/2000/svg">
<path d="M29.2726 64C41.7589 64 51.8811 60.2535 51.8811 55.6321C51.8811 51.0106 41.7589 47.2642 29.2726 47.2642C16.7862 47.2642 6.66406 51.0106 6.66406 55.6321C6.66406 60.2535 16.7862 64 29.2726 64Z" fill="#D6F4FC"/>
<path d="M19.5939 60.3705C20.7696 61.3623 19.8324 63.2647 18.3256 62.9554C11.3711 61.5285 6.66406 58.784 6.66406 55.6317C6.66406 51.0943 15.9409 47.8268 26.5495 47.326C28.3244 47.2423 28.7311 49.7813 27.0155 50.2437C18.6169 52.5078 15.2303 56.6893 19.5939 60.3705Z" fill="#E8F8FC"/>
<path d="M46.6091 37.3088C36.1596 49.6936 39.2678 46.01 32.4021 54.1461C30.7662 56.0841 27.78 56.0841 26.1455 54.1461C19.4698 46.2334 22.4731 49.7929 11.9386 37.3088C4.33853 28.3019 4.90267 14.9763 13.2351 6.64249C22.0942 -2.21658 36.4583 -2.21175 45.3125 6.64249C53.5935 14.9235 54.2536 28.2492 46.6091 37.3088Z" fill="#FE4F60"/>
<path d="M29.2733 12.7253C34.7354 12.7253 39.1644 17.1543 39.1644 22.6164C39.1644 28.0799 34.7354 32.5089 29.2733 32.5089C23.8098 32.5089 19.3809 28.0799 19.3809 22.6164C19.3809 17.1543 23.8098 12.7253 29.2733 12.7253Z" fill="#D6F4FC"/>
<path d="M34.8941 14.4769C36.1723 15.3614 35.5184 17.3669 33.964 17.3627C28.7454 17.3487 24.0027 21.5491 24.0288 27.3106C24.0358 28.8715 22.0331 29.5352 21.1424 28.2534C16.6321 21.7614 21.2519 12.7253 29.2728 12.7253C31.3607 12.7252 33.2977 13.3722 34.8941 14.4769Z" fill="#BDEFFC"/>
<path d="M47.9179 18.6606C46.0934 18.665 45.1494 16.4367 46.4544 15.1296C47.2681 14.3188 48.5732 14.3214 49.3813 15.1296C50.6925 16.4406 49.7423 18.6606 47.9179 18.6606Z" fill="#9FE2F5"/>
<path d="M42.8466 13.0807C42.4157 12.6496 42.4157 11.9511 42.8466 11.5201C45.6658 8.70105 50.2065 8.73953 52.9901 11.5197C53.4213 11.9503 53.4217 12.6491 52.9911 13.0801C52.5606 13.5116 51.8618 13.512 51.4307 13.0811C49.5026 11.1555 46.3581 11.1295 44.4073 13.0807C43.976 13.5116 43.2776 13.5114 42.8466 13.0807Z" fill="#9FE2F5"/>
<path d="M55.5277 8.98443C51.4355 4.89379 44.6026 4.69296 40.3115 8.98415C39.8804 9.41519 39.1818 9.41505 38.751 8.98429C38.32 8.55339 38.32 7.85477 38.7509 7.42387C43.9193 2.25488 52.1548 2.49267 57.0878 7.42359C57.5188 7.85449 57.519 8.55311 57.0882 8.98401C56.6573 9.41519 55.9584 9.41505 55.5277 8.98443Z" fill="#9FE2F5"/>
<path d="M27.0662 0.101952C32.762 -0.436947 34.4024 7.63178 28.9752 9.44172C21.2731 12.0104 15.2084 18.707 13.7949 27.2374C13.1742 30.9836 7.86904 31.1251 7.08696 27.4092C4.26723 14.0099 13.7808 1.35892 27.0662 0.101952Z" fill="#FF6D7A"/>
</svg>
