<svg width="64" height="64" viewBox="0 0 64 64" fill="none" xmlns="http://www.w3.org/2000/svg">
<g clip-path="url(#clip0_302_134)">
<path d="M63.349 3.96137C62.9402 3.54221 62.3786 3.30722 61.7931 3.31033H2.20693C1.62145 3.30722 1.05985 3.54221 0.651065 3.96137C0.23191 4.37015 -0.00308453 4.93175 3.05806e-05 5.51723V51.8621C-0.00308453 52.4475 0.23191 53.0091 0.651065 53.4179C1.05985 53.8371 1.62145 54.0721 2.20693 54.069H60.6897C62.5179 54.069 64 52.5869 64 50.7586V5.51723C64.0031 4.93175 63.7681 4.37015 63.349 3.96137Z" fill="#F3D55B"/>
<path d="M63.9997 5.51729V50.7587C63.9997 51.6365 63.6503 52.4782 63.0286 53.098L58.4824 48.5518V8.82763L63.3486 3.96143C63.7678 4.37021 64.0028 4.93181 63.9997 5.51729Z" fill="#F0C419"/>
<path d="M5.51727 8.82763V48.5518L0.651065 53.418C0.23191 53.0092 -0.00308453 52.4476 3.05806e-05 51.8621V5.51729C-0.00308453 4.93181 0.23191 4.37021 0.651065 3.96143L5.51727 8.82763Z" fill="#F0C419"/>
<path d="M63.0283 53.098C62.4086 53.7197 61.5668 54.0691 60.689 54.069H2.20625C1.62077 54.0721 1.05918 53.8371 0.650391 53.418L5.5166 48.5518H58.4821L63.0283 53.098Z" fill="#F29C1F"/>
<path d="M5.51758 8.82764H58.4831V48.5518H5.51758V8.82764Z" fill="#ECF0F1"/>
<path d="M58.4831 8.82764C58.4831 8.82764 5.51758 8.82764 5.51758 48.5518V8.82764H58.4831Z" fill="white"/>
<path d="M39.7236 16.5516H24.2753C23.6659 16.5516 23.1719 16.0576 23.1719 15.4482C23.1719 14.8388 23.6659 14.3447 24.2753 14.3447H39.7236C40.333 14.3447 40.8271 14.8388 40.8271 15.4482C40.8271 16.0576 40.333 16.5516 39.7236 16.5516Z" fill="#BDC3C7"/>
<path d="M28.6904 40.8275H13.2421C12.6327 40.8275 12.1387 40.3335 12.1387 39.724C12.1387 39.1146 12.6327 38.6206 13.2421 38.6206H28.6904C29.2998 38.6206 29.7938 39.1146 29.7938 39.724C29.7938 40.3335 29.2998 40.8275 28.6904 40.8275Z" fill="#95A5A5"/>
<path d="M43.0337 22.069H20.9648C20.3554 22.069 19.8613 21.5749 19.8613 20.9655C19.8613 20.3561 20.3554 19.8621 20.9648 19.8621H43.0337C43.6431 19.8621 44.1372 20.3561 44.1372 20.9655C44.1372 21.5749 43.6431 22.069 43.0337 22.069Z" fill="#BDC3C7"/>
<path d="M38.6211 44.5793L38.6211 58.9021C38.6184 59.2865 38.816 59.6446 39.1426 59.8473C39.4692 60.0501 39.8778 60.0682 40.2211 59.8952L43.0901 58.4497C43.4031 58.2952 43.7702 58.2952 44.0832 58.4497L46.9522 59.8952C47.2955 60.0682 47.704 60.0501 48.0307 59.8473C48.3573 59.6446 48.5548 59.2865 48.5522 58.9021L48.5522 44.5793H38.6211Z" fill="#FF5364"/>
<path d="M28.6904 36.4137C25.9885 36.4137 23.3322 35.7167 20.9784 34.39C18.6207 35.7287 15.9534 36.4264 13.2421 36.4137C12.6327 36.4137 12.1387 35.9197 12.1387 35.3102C12.1387 34.7008 12.6327 34.2068 13.2421 34.2068C15.22 34.2156 17.1751 33.7856 18.9668 32.9478C17.8216 32.0698 17.089 30.7585 16.942 29.3229C16.942 28.6609 17.2322 26.4827 20.9663 26.4827C24.7003 26.4827 24.9905 28.6565 24.9905 29.3229C24.8442 30.7603 24.1122 32.0738 22.9668 32.9544C24.7591 33.7884 26.7136 34.216 28.6904 34.2068C29.2998 34.2068 29.7938 34.7008 29.7938 35.3102C29.7938 35.9197 29.2998 36.4137 28.6904 36.4137ZM20.9663 28.6896C20.1276 28.6896 19.1489 28.8551 19.1489 29.3229C19.1489 29.7908 19.6443 30.7331 20.9574 31.7439C22.1315 30.8457 22.7836 29.9067 22.7836 29.3229C22.7836 28.8551 21.8049 28.6896 20.9663 28.6896Z" fill="#95A5A5"/>
<path d="M54.069 36.9654C54.069 38.2377 51.6933 39.0267 51.2343 40.1334C50.7587 41.2799 51.8621 43.5144 50.9981 44.3784C50.1341 45.2424 47.8997 44.1389 46.7543 44.6134C45.6475 45.0725 44.8586 47.4482 43.5863 47.4482C42.314 47.4482 41.525 45.0725 40.4183 44.6134C39.2718 44.1378 37.0373 45.2413 36.1733 44.3773C35.3093 43.5133 36.4128 41.2788 35.9383 40.1334C35.4792 39.0267 33.1035 38.2377 33.1035 36.9654C33.1035 35.6932 35.4792 34.9042 35.9383 33.7974C36.4139 32.6509 35.3104 30.4165 36.1744 29.5525C37.0384 28.6885 39.2729 29.7919 40.4183 29.3174C41.5217 28.8584 42.314 26.4827 43.5863 26.4827C44.8586 26.4827 45.6475 28.8584 46.7543 29.3174C47.9008 29.793 50.1352 28.6896 50.9993 29.5536C51.8633 30.4176 50.7598 32.652 51.2343 33.7974C51.6933 34.9042 54.069 35.6932 54.069 36.9654Z" fill="#FB7B76"/>
<path d="M43.5867 40.8277C45.7196 40.8277 47.4488 39.0986 47.4488 36.9656C47.4488 34.8326 45.7196 33.1035 43.5867 33.1035C41.4537 33.1035 39.7246 34.8326 39.7246 36.9656C39.7246 39.0986 41.4537 40.8277 43.5867 40.8277Z" fill="#DF4D60"/>
</g>
<defs>
<clipPath id="clip0_302_134">
<rect width="64" height="64" fill="white"/>
</clipPath>
</defs>
</svg>
