<svg width="64" height="64" viewBox="0 0 64 64" fill="none" xmlns="http://www.w3.org/2000/svg">
<path d="M45.3667 12.8038L15.803 42.3675C13.3809 39.4333 11.8015 35.8963 11.2334 32.1342C10.6654 28.3721 11.1301 24.5264 12.5778 21.0079C14.0256 17.4894 16.4021 14.4303 19.4534 12.1575C22.5046 9.88471 26.116 8.48355 29.9018 8.10375C30.5918 8.035 31.2909 8.00042 31.9993 8C32.7076 7.99959 33.4068 8.03417 34.0968 8.10375C38.2375 8.5137 42.1617 10.1502 45.3667 12.8038Z" fill="#6CBAE5"/>
<path d="M46.0045 12.033C42.6476 9.25086 38.5356 7.536 34.1966 7.10873C32.7359 6.96473 31.2646 6.96473 29.8039 7.10873C25.8379 7.50682 22.0546 8.97483 18.8581 11.3559C15.6616 13.737 13.172 16.9418 11.6552 20.6278C10.1385 24.3138 9.65154 28.3426 10.2465 32.2838C10.8414 36.2251 12.4958 39.9307 15.033 43.0047C15.1217 43.1122 15.2318 43.2 15.3564 43.2624C15.481 43.3248 15.6172 43.3605 15.7564 43.3672C15.7723 43.368 15.788 43.3682 15.8039 43.3682C16.069 43.3682 16.3233 43.2629 16.5109 43.0755L46.075 13.511C46.1735 13.4125 46.2503 13.2945 46.3006 13.1646C46.3508 13.0346 46.3734 12.8956 46.3668 12.7565C46.3602 12.6173 46.3246 12.4811 46.2623 12.3565C46.1999 12.2319 46.1123 12.1217 46.0049 12.033H46.0045ZM28.757 28.0001H22.618C22.7029 25.4476 23.1197 22.917 23.858 20.4721C26.227 20.7793 28.6115 20.9526 31 20.9911V25.7571L28.757 28.0001ZM26.757 30.0001L22.9884 33.7686C22.785 32.5216 22.6615 31.2629 22.6187 30.0001H26.757ZM30.3757 9.06648C30.5831 9.04973 30.7911 9.03511 30.9999 9.02486V18.9911C28.8321 18.9551 26.6678 18.8046 24.5159 18.5401C25.8421 15.0349 27.8317 11.8183 30.3759 9.06648H30.3757ZM33 20.9912C33.9583 20.976 34.9175 20.9388 35.8776 20.8796L33 23.7571V20.9912ZM38.0595 18.6976C36.3859 18.8646 34.6899 18.9631 33 18.9909V9.02511C33.209 9.03536 33.4172 9.05011 33.625 9.06673C35.9445 11.579 37.8057 14.4784 39.1241 17.6332L38.0595 18.6976ZM27.3375 9.54636C25.2618 12.1691 23.6234 15.1101 22.4859 18.2555C20.3273 17.9174 18.1884 17.464 16.0783 16.8972C18.8641 13.214 22.8448 10.6151 27.3375 9.54636ZM14.8875 18.6437C17.18 19.2875 19.5071 19.8011 21.8576 20.1821C21.1163 22.7254 20.6996 25.3522 20.6173 28.0001H12.0278C12.1869 24.6918 13.1699 21.4757 14.8875 18.6437ZM15.8965 40.8614C13.5702 37.6983 12.2243 33.9215 12.0261 30.0001H20.6173C20.676 31.8432 20.8961 33.6776 21.2749 35.4824L15.8965 40.8614ZM40.6459 16.1114C39.5937 13.7669 38.2556 11.5615 36.6621 9.54548C39.2633 10.1658 41.7123 11.3052 43.8621 12.8955L40.6459 16.1114Z" fill="#428DC5"/>
<path d="M53.0003 28.9998C53.0046 24.1205 51.3056 19.3928 48.1966 15.6323L18.6328 45.1961C21.8379 47.8496 25.7621 49.4861 29.9028 49.8961C30.5928 49.9652 31.292 49.9998 32.0003 49.9998C32.7086 49.9998 33.4078 49.9652 34.0978 49.8961C34.4007 49.8661 34.7014 49.8287 35.0003 49.7859V55.9998L44.0406 46.2062C46.809 44.2715 49.0694 41.6968 50.6293 38.7011C52.1892 35.7054 53.0026 32.3773 53.0003 28.9998Z" fill="#EAEAE8"/>
<path d="M32 41C33.1046 41 34 40.1046 34 39C34 37.8954 33.1046 37 32 37C30.8954 37 30 37.8954 30 39C30 40.1046 30.8954 41 32 41Z" fill="#428DC5"/>
<path d="M38 41C39.1046 41 40 40.1046 40 39C40 37.8954 39.1046 37 38 37C36.8954 37 36 37.8954 36 39C36 40.1046 36.8954 41 38 41Z" fill="#428DC5"/>
<path d="M44 41C45.1046 41 46 40.1046 46 39C46 37.8954 45.1046 37 44 37C42.8954 37 42 37.8954 42 39C42 40.1046 42.8954 41 44 41Z" fill="#428DC5"/>
<path d="M56.0652 12H56.8168C57.082 12 57.3364 11.8946 57.5239 11.7071C57.7114 11.5196 57.8168 11.2652 57.8168 11C57.8168 10.7348 57.7114 10.4804 57.5239 10.2929C57.3364 10.1054 57.082 10 56.8168 10H53.8168C53.5516 10 53.2972 10.1054 53.1097 10.2929C52.9221 10.4804 52.8168 10.7348 52.8168 11V14C52.8168 14.2652 52.9221 14.5196 53.1097 14.7071C53.2972 14.8946 53.5516 15 53.8168 15C54.082 15 54.3364 14.8946 54.5239 14.7071C54.7114 14.5196 54.8168 14.2652 54.8168 14V13.6702C58.4601 18.6612 60.2067 24.7866 59.7436 30.9485C59.2805 37.1104 56.6379 42.9059 52.2895 47.2962C52.1029 47.4847 51.9987 47.7395 52 48.0048C52.0013 48.27 52.1079 48.5239 52.2963 48.7105C52.4847 48.8971 52.7396 49.0013 53.0048 49C53.27 48.9988 53.5239 48.8922 53.7105 48.7038C58.4676 43.9007 61.3264 37.5389 61.7592 30.7927C62.192 24.0465 60.1695 17.3715 56.0652 12Z" fill="#41DFD0"/>
<path d="M10.2963 9.10621C5.59159 13.7661 2.6906 19.9425 2.10846 26.5387C1.52632 33.1349 3.30071 39.724 7.11654 45.1358L6.27154 45.0108C6.14163 44.9916 6.0092 44.9981 5.88182 45.0301C5.75443 45.062 5.63459 45.1187 5.52912 45.197C5.31613 45.355 5.17464 45.5912 5.13579 45.8536C5.09693 46.116 5.1639 46.383 5.32194 46.596C5.47999 46.809 5.71617 46.9505 5.97854 46.9893L9.35354 47.4893C9.48533 47.5088 9.6197 47.5018 9.74875 47.4687C9.87779 47.4355 9.99891 47.3769 10.105 47.2963C10.2111 47.2157 10.3 47.1147 10.3665 46.9993C10.433 46.8839 10.4758 46.7563 10.4923 46.6241L10.8673 43.6241C10.8979 43.362 10.8237 43.0985 10.6609 42.8909C10.4981 42.6833 10.2598 42.5485 9.99805 42.5157C9.73626 42.483 9.47214 42.5551 9.26324 42.7162C9.05435 42.8774 8.9176 43.1146 8.88279 43.3761L8.79829 44.0511C5.23115 39.0253 3.5651 32.8958 4.09726 26.7557C4.62941 20.6157 7.32516 14.8643 11.7038 10.5271C11.7977 10.4348 11.8724 10.3249 11.9237 10.2036C11.975 10.0824 12.0018 9.95224 12.0027 9.8206C12.0036 9.68896 11.9785 9.55844 11.9288 9.43654C11.8791 9.31463 11.8058 9.20373 11.7132 9.11021C11.6205 9.01669 11.5103 8.94237 11.3889 8.89154C11.2675 8.8407 11.1372 8.81434 11.0056 8.81397C10.8739 8.8136 10.7435 8.83922 10.6218 8.88937C10.5001 8.93952 10.3895 9.01321 10.2963 9.10621Z" fill="#37C9C3"/>
</svg>
