<svg width="1920" height="1158" viewBox="0 0 1920 1158" fill="none" xmlns="http://www.w3.org/2000/svg">
<g filter="url(#filter0_f_2745_208)">
<circle cx="1697.82" cy="-1.46389" r="158.646" transform="rotate(-69.2664 1697.82 -1.46389)" fill="#FF782D" fill-opacity="0.2"/>
</g>
<g filter="url(#filter1_f_2745_208)">
<circle cx="1962.31" cy="98.6554" r="158.646" transform="rotate(-69.2664 1962.31 98.6554)" fill="#FFC700" fill-opacity="0.2"/>
</g>
<g filter="url(#filter2_f_2745_208)">
<circle cx="1727.65" cy="270.424" r="158.646" transform="rotate(-69.2664 1727.65 270.424)" fill="#1A21BC" fill-opacity="0.1"/>
</g>
<g filter="url(#filter3_f_2745_208)">
<circle cx="-4.90314" cy="405.847" r="190.514" transform="rotate(147.9 -4.90314 405.847)" fill="#FF782D" fill-opacity="0.2"/>
</g>
<g filter="url(#filter4_f_2745_208)">
<circle cx="-185.372" cy="118.154" r="190.514" transform="rotate(147.9 -185.372 118.154)" fill="#FFC700" fill-opacity="0.2"/>
</g>
<g filter="url(#filter5_f_2745_208)">
<circle cx="163.798" cy="124.017" r="190.514" transform="rotate(147.9 163.798 124.017)" fill="#1A21BC" fill-opacity="0.1"/>
</g>
<path fill-rule="evenodd" clip-rule="evenodd" d="M-28.4731 819.408C-32.8848 812.239 -30.9547 785.769 -30.9547 785.769C-30.9547 785.769 -6.69066 796.522 -2.27902 803.967C2.13262 811.136 0.202511 837.606 0.202511 837.606C0.202511 837.606 -24.0615 826.577 -28.4731 819.408Z" fill="black" fill-opacity="0.02"/>
<path fill-rule="evenodd" clip-rule="evenodd" d="M10.6816 780.254C2.40976 780.53 -19.6484 765.64 -19.6484 765.64C-19.6484 765.64 1.85837 750.2 10.4059 749.924C18.9535 749.648 40.736 764.537 40.736 764.537C40.736 764.537 19.2291 780.254 10.6816 780.254Z" fill="black" fill-opacity="0.02"/>
<path fill-rule="evenodd" clip-rule="evenodd" d="M-3.65742 727.038C-7.79334 734.483 -31.5059 746.064 -31.5059 746.064C-31.5059 746.064 -34.2632 719.594 -30.1273 712.425C-25.9914 705.256 -2.27879 693.4 -2.27879 693.4C-2.27879 693.4 0.478485 719.594 -3.65742 727.038Z" fill="black" fill-opacity="0.02"/>
<path d="M-375.612 859.387V963.336L-285.449 1015.45L-233.336 1105.61H-129.387L-39.2242 1157.72L50.9386 1105.61H154.612L206.725 1015.45L296.888 963.336V859.387L349 769.224L296.888 679.061V575.112L206.725 523L154.612 433.112H50.6629L-39.4999 381L-129.663 433.112H-233.612L-285.725 523.275L-375.887 575.388V679.337L-428 769.5L-375.612 859.387ZM-346.66 863.523H-258.428L-218.723 794.591L-145.379 837.053V905.434H-233.612L-279.934 985.395L-346.936 946.793V863.523H-346.66ZM-116.428 721.248V634.669L-39.4999 679.061L37.428 634.669V721.248L110.22 763.158L37.428 805.069V897.438L-39.4999 853.045L-116.428 897.438V819.682L-201.903 770.327L-116.428 721.248ZM-257.876 1005.52L-216.793 934.385H-144.001L-97.6785 1014.35L-133.523 1076.66H-216.517L-257.876 1005.52ZM-105.675 1085.76L-64.3154 1014.35L-113.395 929.422L-39.4999 886.684L28.0533 925.837L-14.4087 999.457L33.2921 1082.17L-39.4999 1124.09L-105.675 1085.76ZM138.069 1076.66H63.6221L19.23 999.732L57.0047 934.385H138.069L179.152 1005.52L138.069 1076.66ZM200.934 985.395L154.612 905.434H66.3794V822.164L133.381 783.562L179.703 863.523H267.936V946.793L200.934 985.395ZM315.361 769.224L277.587 834.572H196.247L155.164 763.434L196.247 692.296H270.693L315.361 769.224ZM267.936 663.345H179.703L133.381 743.306L66.3794 704.704V627.225H154.612L198.177 551.675L267.66 591.932V663.345H267.936ZM177.222 530.169L138.069 598.273H60.0377L18.9542 527.136L56.7289 461.788H138.069L177.222 530.169ZM28.0533 453.516L-14.4087 527.136L30.8106 605.166L-39.4999 645.698L-109.81 605.166L-64.5912 527.136L-107.053 453.516L-39.4999 414.363L28.0533 453.516ZM-216.793 462.064H-135.453L-97.6785 527.411L-138.762 598.549H-216.793L-256.222 530.169L-216.793 462.064ZM-277.177 551.675L-233.612 627.225H-145.379V704.704L-218.723 747.166L-258.428 678.234H-346.66V591.932L-277.177 551.675ZM-358.241 706.91H-275.247L-238.299 770.603L-275.247 834.296H-356.587L-394.361 768.949L-358.241 706.91Z" fill="black" fill-opacity="0.02"/>
<defs>
<filter id="filter0_f_2745_208" x="1332.13" y="-367.153" width="731.377" height="731.378" filterUnits="userSpaceOnUse" color-interpolation-filters="sRGB">
<feFlood flood-opacity="0" result="BackgroundImageFix"/>
<feBlend mode="normal" in="SourceGraphic" in2="BackgroundImageFix" result="shape"/>
<feGaussianBlur stdDeviation="103.5" result="effect1_foregroundBlur_2745_208"/>
</filter>
<filter id="filter1_f_2745_208" x="1596.62" y="-267.034" width="731.377" height="731.378" filterUnits="userSpaceOnUse" color-interpolation-filters="sRGB">
<feFlood flood-opacity="0" result="BackgroundImageFix"/>
<feBlend mode="normal" in="SourceGraphic" in2="BackgroundImageFix" result="shape"/>
<feGaussianBlur stdDeviation="103.5" result="effect1_foregroundBlur_2745_208"/>
</filter>
<filter id="filter2_f_2745_208" x="1361.96" y="-95.265" width="731.377" height="731.378" filterUnits="userSpaceOnUse" color-interpolation-filters="sRGB">
<feFlood flood-opacity="0" result="BackgroundImageFix"/>
<feBlend mode="normal" in="SourceGraphic" in2="BackgroundImageFix" result="shape"/>
<feGaussianBlur stdDeviation="103.5" result="effect1_foregroundBlur_2745_208"/>
</filter>
<filter id="filter3_f_2745_208" x="-402.443" y="8.3078" width="795.08" height="795.079" filterUnits="userSpaceOnUse" color-interpolation-filters="sRGB">
<feFlood flood-opacity="0" result="BackgroundImageFix"/>
<feBlend mode="normal" in="SourceGraphic" in2="BackgroundImageFix" result="shape"/>
<feGaussianBlur stdDeviation="103.5" result="effect1_foregroundBlur_2745_208"/>
</filter>
<filter id="filter4_f_2745_208" x="-582.912" y="-279.385" width="795.08" height="795.079" filterUnits="userSpaceOnUse" color-interpolation-filters="sRGB">
<feFlood flood-opacity="0" result="BackgroundImageFix"/>
<feBlend mode="normal" in="SourceGraphic" in2="BackgroundImageFix" result="shape"/>
<feGaussianBlur stdDeviation="103.5" result="effect1_foregroundBlur_2745_208"/>
</filter>
<filter id="filter5_f_2745_208" x="-233.742" y="-273.523" width="795.08" height="795.079" filterUnits="userSpaceOnUse" color-interpolation-filters="sRGB">
<feFlood flood-opacity="0" result="BackgroundImageFix"/>
<feBlend mode="normal" in="SourceGraphic" in2="BackgroundImageFix" result="shape"/>
<feGaussianBlur stdDeviation="103.5" result="effect1_foregroundBlur_2745_208"/>
</filter>
</defs>
</svg>
