<svg width="40" height="40" viewBox="0 0 40 40" fill="none" xmlns="http://www.w3.org/2000/svg">
<path d="M34.5002 28C34.0002 27.8334 30.3335 26.1667 30.3335 21.5C30.3335 17.8334 32.8335 16 33.8335 15.3334C34.0002 15.1667 34.1668 15 34.1668 14.8334C34.1668 14.6667 34.1668 14.3334 34.0002 14.1667C31.6668 10.6667 28.0002 10.3334 27.0002 10.3334C25.1668 10.1667 23.3335 10.8334 22.0002 11.3334C21.3335 11.6667 20.6668 11.8334 20.1668 11.8334C19.6668 11.8334 19.0002 11.5 18.3335 11.3334C17.1668 10.8334 15.8335 10.3334 14.3335 10.3334C11.1668 10.3334 8.00018 12.3334 6.33351 15.1667C3.33351 21 5.33351 29.3334 8.66684 34.3334C10.0002 36.3334 12.0002 39.1667 14.8335 39.1667H15.0002C16.1668 39.1667 17.0002 38.8334 17.8335 38.3334C18.6668 38 19.5002 37.6667 20.6668 37.6667C21.8335 37.6667 22.6668 38 23.3335 38.3334C24.1668 38.6667 25.0002 39 26.3335 39C29.1668 39 31.0002 36.3334 32.3335 34.1667C33.8335 32 34.6668 29.6667 34.8335 28.8334C35.1668 28.6667 35.0002 28.1667 34.5002 28Z" fill="black"/>
<path d="M24.8327 5.50004C25.9994 4.16671 26.666 2.50004 26.666 0.833374C25.166 1.16671 23.4994 2.16671 22.4993 3.33337C21.666 4.33337 20.666 6.16671 20.666 8.00004C22.166 7.83337 23.8327 6.83337 24.8327 5.50004Z" fill="black"/>
</svg>
