<svg width="32" height="32" viewBox="0 0 32 32" fill="none" xmlns="http://www.w3.org/2000/svg">
<g clip-path="url(#clip0_100_589)">
<path fill-rule="evenodd" clip-rule="evenodd" d="M6.89655 16C6.89655 14.9607 7.06905 13.9642 7.3773 13.0297L1.9848 8.91199C0.933797 11.0457 0.341797 13.4502 0.341797 16C0.341797 18.5477 0.933297 20.9505 1.98255 23.083L7.37205 18.9572C7.0668 18.027 6.89655 17.0342 6.89655 16Z" fill="#FBBC05"/>
<path fill-rule="evenodd" clip-rule="evenodd" d="M16.3641 6.5455C18.6219 6.5455 20.6611 7.3455 22.2634 8.6545L26.9244 4C24.0841 1.52725 20.4426 0 16.3641 0C10.0321 0 4.59013 3.621 1.98438 8.912L7.37663 13.0297C8.61912 9.25825 12.1609 6.5455 16.3641 6.5455Z" fill="#EA4335"/>
<path fill-rule="evenodd" clip-rule="evenodd" d="M16.3641 25.4545C12.1611 25.4545 8.61937 22.7417 7.37687 18.9702L1.98438 23.0872C4.59013 28.379 10.0321 32 16.3641 32C20.2721 32 24.0034 30.6122 26.8036 28.0122L21.6851 24.0552C20.2409 24.965 18.4221 25.4545 16.3641 25.4545Z" fill="#34A853"/>
<path fill-rule="evenodd" clip-rule="evenodd" d="M31.6575 15.9999C31.6575 15.0544 31.5118 14.0362 31.2933 13.0909H16.3633V19.2727H24.9573C24.5275 21.3804 23.358 23.0007 21.6843 24.0552L26.8028 28.0122C29.7443 25.2822 31.6575 21.2152 31.6575 15.9999Z" fill="#4285F4"/>
</g>
<defs>
<clipPath id="clip0_100_589">
<rect width="32" height="32" fill="white"/>
</clipPath>
</defs>
</svg>
