<svg width="165" height="46" viewBox="0 0 165 46" fill="none" xmlns="http://www.w3.org/2000/svg">
<g clip-path="url(#clip0_101_1749)">
<path fill-rule="evenodd" clip-rule="evenodd" d="M84.203 13.8487H85.5747C86.9197 13.8487 87.713 13.1647 87.713 11.8896C87.713 10.622 86.9197 9.93798 85.5921 9.93798H84.203V13.8487ZM86.4285 7.56543C89.1021 7.56543 90.9128 9.26201 90.9128 11.8815C90.9128 14.4824 89.0073 16.179 86.2392 16.179H84.203V19.7518H81.0391V7.56543H86.4285Z" fill="#00282F"/>
<path fill-rule="evenodd" clip-rule="evenodd" d="M95.3499 17.2522H96.8238C98.8851 17.2522 99.9897 16.0273 99.9897 13.5946C99.9897 11.307 98.8257 10.0645 96.8238 10.0645H95.3499V17.2522ZM97.238 7.56445C100.998 7.56445 103.206 9.70139 103.206 13.587C103.206 17.4802 100.99 19.7523 97.238 19.7523H92.1855V7.56445H97.238Z" fill="#00282F"/>
<path fill-rule="evenodd" clip-rule="evenodd" d="M107.645 13.8487H109.016C110.361 13.8487 111.154 13.1647 111.154 11.8896C111.154 10.622 110.361 9.93798 109.034 9.93798H107.645V13.8487ZM109.87 7.56543C112.544 7.56543 114.354 9.26201 114.354 11.8815C114.354 14.4824 112.449 16.179 109.681 16.179H107.645V19.7514H104.48V7.56543H109.87Z" fill="#00282F"/>
<path fill-rule="evenodd" clip-rule="evenodd" d="M85.9411 33.3173H88.7779L87.3985 28.622H87.3297L85.9412 33.3173H85.9411ZM89.3988 35.5471H85.3293L84.536 38.2249H81.3105L85.4928 26.0371H89.3639L93.5462 38.2249H90.1843L89.3987 35.5471H89.3988Z" fill="#00282F"/>
<path fill-rule="evenodd" clip-rule="evenodd" d="M93.0957 32.1265C93.0957 28.1484 95.4335 25.8257 99.1409 25.8257C102.289 25.8257 104.677 27.8105 104.771 30.6912H101.727C101.573 29.2553 100.529 28.3087 99.1409 28.3087C97.4165 28.3087 96.3211 29.754 96.3211 32.1189C96.3211 34.509 97.4082 35.9524 99.1502 35.9524C100.537 35.9524 101.547 35.0574 101.745 33.6297H104.789C104.643 36.526 102.348 38.4354 99.1409 38.4354C95.4155 38.4354 93.0957 36.1126 93.0957 32.1265Z" fill="#00282F"/>
<path fill-rule="evenodd" clip-rule="evenodd" d="M109.117 33.3173H111.953L110.574 28.622H110.505L109.117 33.3173ZM112.575 35.5471H108.505L107.712 38.2249H104.486L108.669 26.0371H112.539L116.722 38.2249H113.36L112.575 35.5471H112.575Z" fill="#00282F"/>
<path fill-rule="evenodd" clip-rule="evenodd" d="M120.635 35.7244H122.109C124.17 35.7244 125.275 34.4995 125.275 32.0668C125.275 29.7791 124.111 28.5367 122.109 28.5367H120.635V35.7244ZM122.523 26.0366C126.284 26.0366 128.491 28.1736 128.491 32.0592C128.491 35.9524 126.275 38.2244 122.523 38.2244H117.471V26.0366H122.523Z" fill="#00282F"/>
<path fill-rule="evenodd" clip-rule="evenodd" d="M137.87 38.2244H129.342V26.0381H137.87V28.5367H132.506V30.9614H137.551V33.2414H132.506V35.724H137.87V38.2244Z" fill="#00282F"/>
<path fill-rule="evenodd" clip-rule="evenodd" d="M149.73 38.2244V30.6153H149.669L146.591 38.2244H144.78L141.71 30.6153H141.641V38.2244H138.855V26.0381H142.511L145.65 34.0009H145.719L148.859 26.0381H152.516V38.2244H149.73Z" fill="#00282F"/>
<path fill-rule="evenodd" clip-rule="evenodd" d="M157.549 38.2244V34.0355L153.264 26.0381H156.661L159.135 31.1045H159.196L161.662 26.0381H165L160.713 34.0355V38.2244H157.549Z" fill="#00282F"/>
<path fill-rule="evenodd" clip-rule="evenodd" d="M15.7607 7.56445C7.07139 7.56445 0 14.4886 0 23.0003C0 31.5106 7.07133 38.4352 15.7607 38.4352C24.4501 38.4352 31.5205 31.5106 31.5205 23.0003C31.5205 14.4886 24.4501 7.56445 15.7607 7.56445Z" fill="#00B533"/>
<path fill-rule="evenodd" clip-rule="evenodd" d="M45.3162 45.9999H35.6133L47.0819 0H56.7847L45.3162 45.9999Z" fill="#00282F"/>
<path fill-rule="evenodd" clip-rule="evenodd" d="M59.4353 45.9999H49.7324L61.2005 0H70.9053L59.4353 45.9999Z" fill="#00282F"/>
</g>
<defs>
<clipPath id="clip0_101_1749">
<rect width="165" height="46" fill="white"/>
</clipPath>
</defs>
</svg>
