<svg width="126" height="44" viewBox="0 0 126 44" fill="none" xmlns="http://www.w3.org/2000/svg">
<path d="M35.376 43.7988H15.8773C13.4526 43.8027 11.0826 43.0816 9.07393 41.7287C7.1175 40.4132 5.58611 38.5608 4.66532 36.3958C4.03117 34.9033 3.70591 33.2985 3.70901 31.6778V22.9477C4.33971 22.9492 4.96443 22.8261 5.54702 22.5854C6.12961 22.3447 6.65851 21.9913 7.10309 21.5458C7.55044 21.1029 7.90519 20.5761 8.14677 19.9958C8.38834 19.4154 8.51199 18.793 8.51051 18.1648C8.50924 16.8966 8.003 15.6807 7.10286 14.7838C6.20271 13.8869 4.98218 13.3823 3.70901 13.3807V12.2552C3.70522 9.83998 4.42915 7.4792 5.78715 5.47831C7.10785 3.52955 8.96754 2.00408 11.1409 1.08674C12.6393 0.455062 14.2503 0.131114 15.8773 0.134301H35.376C37.8007 0.130332 40.1707 0.851465 42.1794 2.20435C44.1358 3.51991 45.6671 5.37235 46.5881 7.53726C47.2223 9.02981 47.5475 10.6345 47.5443 12.2552V31.6778C47.5483 34.0931 46.8243 36.4539 45.4662 38.4548C44.1455 40.4036 42.2858 41.9289 40.1125 42.8463C38.6141 43.4781 37.0031 43.802 35.376 43.7988ZM28.4863 10.7426L23.1035 33.4903H26.4168L31.8004 10.7426H28.4863ZM33.2666 18.3253L37.3639 22.7468L33.2666 27.1683H37.5849L41.6622 22.7468L37.5849 18.3253H33.2666ZM17.0579 18.3253L12.9807 22.7466L17.0579 27.1681H21.3762L17.2789 22.7466L21.3764 18.3251H17.0579V18.3253ZM12.821 4.67263C12.1391 4.67258 11.4725 4.87396 10.9055 5.2513C10.3384 5.62864 9.89648 6.165 9.63551 6.79255C9.37452 7.42009 9.30622 8.11065 9.43923 8.77686C9.57226 9.44309 9.90063 10.055 10.3828 10.5354C10.865 11.0157 11.4794 11.3428 12.1482 11.4753C12.817 11.6078 13.5103 11.5397 14.1403 11.2798C14.7703 11.0198 15.3088 10.5796 15.6876 10.0148C16.0664 9.44994 16.2686 8.78592 16.2685 8.10665C16.2674 7.19615 15.9039 6.32324 15.2575 5.67943C14.6112 5.03562 13.7348 4.6735 12.8207 4.67249L12.821 4.67263Z" fill="#29B85D"/>
<path d="M3.63666 21.6014C5.53941 21.6014 7.0819 20.065 7.0819 18.1696C7.0819 16.2742 5.53941 14.7378 3.63666 14.7378C1.7339 14.7378 0.191406 16.2742 0.191406 18.1696C0.191406 20.065 1.7339 21.6014 3.63666 21.6014Z" fill="black"/>
<path d="M64.8629 29.7678C62.0441 29.7678 59.6632 29.1409 57.7202 27.8869C55.7773 26.6328 54.3952 24.9019 53.5742 22.6938L58.4181 19.8724C59.5401 22.7892 61.7431 24.2477 65.0271 24.2477C66.5596 24.2477 67.709 23.975 68.4753 23.4299C69.2416 22.8847 69.6247 22.1487 69.6247 21.2218C69.6247 20.2131 69.1731 19.4362 68.27 18.8911C67.3669 18.3186 65.7524 17.7053 63.4262 17.0511C60.9085 16.2877 58.9243 15.4019 57.4739 14.3932C55.6678 13.0575 54.7647 11.0948 54.7647 8.50508C54.7647 5.88813 55.6814 3.83002 57.515 2.33072C59.3486 0.776907 61.5789 0 64.2061 0C66.5049 0 68.5438 0.558827 70.3225 1.67648C72.1013 2.79413 73.4834 4.37521 74.4686 6.4197L69.7068 9.15932C68.5574 6.70593 66.7238 5.47924 64.2061 5.47924C63.0567 5.47924 62.14 5.75184 61.4558 6.29703C60.7716 6.81498 60.4295 7.49646 60.4295 8.34152C60.4295 9.2411 60.799 9.97712 61.5379 10.5496C62.3589 11.122 63.8092 11.7218 65.8892 12.3487L67.8595 13.003C68.2154 13.112 68.8311 13.3437 69.7068 13.6981C70.5278 13.9979 71.1299 14.2842 71.513 14.5568C72.854 15.3746 73.7571 16.2197 74.2223 17.0919C74.9337 18.2369 75.2896 19.5862 75.2896 21.14C75.2896 23.7843 74.318 25.8833 72.375 27.4371C70.432 28.9909 67.928 29.7678 64.8629 29.7678ZM78.7839 0.572458H90.1958C94.1365 0.572458 97.4205 1.94909 100.048 4.70233C102.702 7.42832 104.03 10.8222 104.03 14.8839C104.03 18.9456 102.702 22.3394 100.048 25.0655C97.4205 27.8187 94.1365 29.1953 90.1958 29.1953H78.7839V0.572458ZM84.4488 23.7979H90.1958C92.6862 23.7979 94.7112 22.9801 96.2711 21.3445C97.831 19.6544 98.611 17.5008 98.611 14.8839C98.611 12.2397 97.831 10.0998 96.2711 8.46419C94.7112 6.80134 92.6862 5.96991 90.1958 5.96991H84.4488V23.7979ZM113.713 17.3782V23.7979H125.822V29.1953H108.048V0.572458H125.617V5.96991H113.713V12.0625H124.591V17.3782H113.713Z" fill="black"/>
<path d="M57.4418 39.4905C57.4418 37.6067 54.6857 38.4245 54.6857 37.1101C54.6857 36.5625 55.1181 36.2778 55.6679 36.2924C56.291 36.2997 56.6135 36.6866 56.6575 37.0298H57.3905C57.3099 36.2558 56.6722 35.7228 55.6972 35.7228C54.6857 35.7228 54.0039 36.2924 54.0039 37.1321C54.0039 39.0232 56.7675 38.147 56.7675 39.5197C56.7675 40.0016 56.3863 40.3667 55.7412 40.3667C55.0302 40.3667 54.7296 39.9432 54.6857 39.5197H53.9746C53.9893 40.3594 54.715 40.929 55.7412 40.929C56.8481 40.929 57.4418 40.2134 57.4418 39.4905ZM62.2353 38.8699C62.2353 37.6067 61.3483 36.8108 60.2048 36.8108C59.0686 36.8108 58.1743 37.6067 58.1743 38.8699C58.1743 40.1404 59.0393 40.9436 60.1755 40.9436C61.319 40.9436 62.2353 40.1404 62.2353 38.8699ZM58.856 38.8699C58.856 37.8622 59.4938 37.3876 60.1975 37.3876C60.8865 37.3876 61.5536 37.8622 61.5536 38.8699C61.5536 39.8848 60.8719 40.3594 60.1755 40.3594C59.4791 40.3594 58.856 39.8848 58.856 38.8699ZM63.2369 40.8779H63.904V37.4241H64.747V36.8765H63.904V36.5917C63.904 36.0733 64.1019 35.8542 64.703 35.8542V35.2993C63.6767 35.2993 63.2369 35.7009 63.2369 36.5917V36.8765H62.7165V37.4241H63.2369V40.8779ZM65.6713 39.7826C65.6713 40.5858 66.0745 40.8779 66.7855 40.8779H67.3866V40.3156H66.8955C66.485 40.3156 66.3384 40.1769 66.3384 39.7826V37.4241H67.3866V36.8765H66.3384V35.8689H65.6713V36.8765H65.1509V37.4241H65.6713V39.7826ZM71.7398 35.7885H70.1491V40.8779H71.7398C73.4184 40.8779 74.452 39.9213 74.452 38.3441C74.452 36.767 73.4184 35.7885 71.7398 35.7885ZM70.8162 40.3302V36.3289H71.7398C73.0739 36.3289 73.7703 37.1028 73.7703 38.3441C73.7703 39.5854 73.0739 40.3302 71.7398 40.3302H70.8162ZM75.0827 38.8626C75.0827 40.1039 75.911 40.9436 76.9813 40.9436C77.7216 40.9436 78.2421 40.5639 78.484 40.1331V40.8779H79.1584V36.8765H78.484V37.6067C78.2494 37.1905 77.7363 36.8108 76.9886 36.8108C75.911 36.8108 75.0827 37.614 75.0827 38.8626ZM78.484 38.8699C78.484 39.8118 77.8536 40.3594 77.1205 40.3594C76.3875 40.3594 75.7644 39.8045 75.7644 38.8626C75.7644 37.9206 76.3875 37.3876 77.1205 37.3876C77.8536 37.3876 78.484 37.9425 78.484 38.8699ZM80.4322 39.7826C80.4322 40.5858 80.8354 40.8779 81.5464 40.8779H82.1475V40.3156H81.6564C81.2459 40.3156 81.0993 40.1769 81.0993 39.7826V37.4241H82.1475V36.8765H81.0993V35.8689H80.4322V36.8765H79.9118V37.4241H80.4322V39.7826ZM82.7065 38.8626C82.7065 40.1039 83.5349 40.9436 84.6051 40.9436C85.3454 40.9436 85.8659 40.5639 86.1078 40.1331V40.8779H86.7822V36.8765H86.1078V37.6067C85.8732 37.1905 85.3601 36.8108 84.6124 36.8108C83.5349 36.8108 82.7065 37.614 82.7065 38.8626ZM86.1078 38.8699C86.1078 39.8118 85.4774 40.3594 84.7444 40.3594C84.0113 40.3594 83.3882 39.8045 83.3882 38.8626C83.3882 37.9206 84.0113 37.3876 84.7444 37.3876C85.4774 37.3876 86.1078 37.9425 86.1078 38.8699ZM92.6126 35.7812H89.8637V40.8779H92.6126V40.3302H90.5308V38.5778H92.3927V38.0302H90.5308V36.3289H92.6126V35.7812ZM93.3727 38.8626C93.3727 40.1039 94.201 40.9436 95.2786 40.9436C96.0116 40.9436 96.5321 40.5712 96.774 40.1258V40.8779H97.4484V35.4746H96.774V37.5921C96.4954 37.1321 95.9163 36.8108 95.2859 36.8108C94.201 36.8108 93.3727 37.614 93.3727 38.8626ZM96.774 38.8699C96.774 39.8118 96.1436 40.3594 95.4106 40.3594C94.6775 40.3594 94.0544 39.8045 94.0544 38.8626C94.0544 37.9206 94.6775 37.3876 95.4106 37.3876C96.1436 37.3876 96.774 37.9425 96.774 38.8699ZM102.138 36.8765H101.471V39.0743C101.471 39.9359 101.009 40.3594 100.32 40.3594C99.6459 40.3594 99.1987 39.9432 99.1987 39.1327V36.8765H98.539V39.2204C98.539 40.3667 99.2647 40.9363 100.188 40.9363C100.723 40.9363 101.215 40.7026 101.471 40.2864V40.8779H102.138V36.8765ZM103.015 38.8699C103.015 40.1404 103.829 40.9436 104.972 40.9436C105.969 40.9436 106.622 40.3886 106.827 39.5927H106.109C105.962 40.0966 105.566 40.3813 104.972 40.3813C104.239 40.3813 103.697 39.8629 103.697 38.8699C103.697 37.8914 104.239 37.373 104.972 37.373C105.566 37.373 105.969 37.6797 106.109 38.1616H106.827C106.622 37.3219 105.969 36.8108 104.972 36.8108C103.829 36.8108 103.015 37.614 103.015 38.8699ZM107.468 38.8626C107.468 40.1039 108.296 40.9436 109.366 40.9436C110.107 40.9436 110.627 40.5639 110.869 40.1331V40.8779H111.543V36.8765H110.869V37.6067C110.634 37.1905 110.121 36.8108 109.374 36.8108C108.296 36.8108 107.468 37.614 107.468 38.8626ZM110.869 38.8699C110.869 39.8118 110.239 40.3594 109.506 40.3594C108.773 40.3594 108.149 39.8045 108.149 38.8626C108.149 37.9206 108.773 37.3876 109.506 37.3876C110.239 37.3876 110.869 37.9425 110.869 38.8699ZM112.817 39.7826C112.817 40.5858 113.22 40.8779 113.931 40.8779H114.533V40.3156H114.041C113.631 40.3156 113.484 40.1769 113.484 39.7826V37.4241H114.533V36.8765H113.484V35.8689H112.817V36.8765H112.297V37.4241H112.817V39.7826ZM115.341 40.8779H116.008V36.8765H115.341V40.8779ZM115.685 36.2266C115.927 36.2266 116.125 36.0295 116.125 35.7739C116.125 35.5184 115.927 35.3212 115.685 35.3212C115.429 35.3212 115.231 35.5184 115.231 35.7739C115.231 36.0295 115.429 36.2266 115.685 36.2266ZM120.957 38.8699C120.957 37.6067 120.07 36.8108 118.926 36.8108C117.79 36.8108 116.896 37.6067 116.896 38.8699C116.896 40.1404 117.761 40.9436 118.897 40.9436C120.04 40.9436 120.957 40.1404 120.957 38.8699ZM117.577 38.8699C117.577 37.8622 118.215 37.3876 118.919 37.3876C119.608 37.3876 120.275 37.8622 120.275 38.8699C120.275 39.8848 119.593 40.3594 118.897 40.3594C118.2 40.3594 117.577 39.8848 117.577 38.8699ZM124.773 40.8779H125.433V38.5194C125.433 37.373 124.722 36.8035 123.791 36.8035C123.248 36.8035 122.765 37.0298 122.501 37.446V36.8765H121.834V40.8779H122.501V38.6654C122.501 37.8038 122.97 37.3803 123.651 37.3803C124.326 37.3803 124.773 37.7965 124.773 38.6143V40.8779Z" fill="#263238"/>
</svg>
